<?xml version="1.0" encoding="UTF-8" standalone="no"?>
<svg width="390.80005" height="424.81055" viewBox="0 0 19.540003 21.240528" version="1.1" id="svg14918" sodipodi:docname="Flag_Map_of_Ohio.svg" inkscape:version="1.1.1 (3bf5ae0d25, 2021-09-20)" xmlns:inkscape="http://www.inkscape.org/namespaces/inkscape" xmlns:sodipodi="http://sodipodi.sourceforge.net/DTD/sodipodi-0.dtd" xmlns:xlink="http://www.w3.org/1999/xlink" xmlns="http://www.w3.org/2000/svg" xmlns:svg="http://www.w3.org/2000/svg">
  <sodipodi:namedview id="namedview14920" pagecolor="#ffffff" bordercolor="#666666" borderopacity="1.0" inkscape:pageshadow="2" inkscape:pageopacity="0.0" inkscape:pagecheckerboard="0" showgrid="false" inkscape:zoom="0.81181298" inkscape:cx="194.0102" inkscape:cy="72.060932" inkscape:window-width="1366" inkscape:window-height="697" inkscape:window-x="-8" inkscape:window-y="-8" inkscape:window-maximized="1" inkscape:current-layer="svg14918"/>
  <defs id="defs14880">
    <!--                 8*tan(arctan(16/8)/2)-1  v  -->
    <g id="s" fill="#ffffff" transform="matrix(0.625,0,0,0.625,3.944272,0)">
      <g id="f">
        <g id="t">
          <path id="o" d="M 1,0 H 0 v 0.5 z" transform="rotate(18,1,0)"/>
          <use xlink:href="#o" transform="scale(1,-1)" id="use14866" x="0" y="0" width="100%" height="100%"/>
        </g>
        <use xlink:href="#t" transform="rotate(72)" id="use14869" x="0" y="0" width="100%" height="100%"/>
      </g>
      <use xlink:href="#t" transform="rotate(-72)" id="use14872" x="0" y="0" width="100%" height="100%"/>
      <use xlink:href="#f" transform="rotate(144)" id="use14874" x="0" y="0" width="100%" height="100%"/>
    </g>
    <clipPath id="state_clip_path">
      <g id="state_outline">
        <path id="1719" d="m 18983,-20883 64,3727 3,118 -51,16 -71,41 -67,30 -15,26 -117,36 -62,15 -102,41 -158,61 -77,36 -76,41 -102,56 -67,16 -138,31 -91,40 -57,21 -97,56 -66,21 -107,46 -62,20 -66,36 -71,20 -31,6 -67,10 -81,5 -57,11 -15,10 -25,25 -31,16 -31,20 -25,15 -21,5 -25,6 -26,10 -25,10 -21,-10 -20,-20 h -21 l -82,21 -35,25 -41,51 -61,41 -46,20 -41,10 -51,21 -41,20 -41,10 -41,21 -61,41 -35,20 -51,25 -57,26 -87,36 -86,46 -67,35 -41,11 -56,15 -66,20 -77,11 -56,10 -92,16 -67,15 -56,21 -102,26 -26,5 -35,10 -62,16 -82,15 -86,66 -67,26 -163,56 -143,77 -123,51 -96,51 -72,35 -66,31 -72,35 -92,36 -133,77 -168,101 -76,51 -92,51 -67,51 -41,5 -86,56 -67,46 -97,56 -61,35 -66,31 -67,25 -127,46 -46,6 h -41 l -46,-20 -31,-15 -36,10 -51,36 -56,45 -92,56 -122,87 -72,45 -41,36 -46,25 -112,66 -46,16 -26,15 -35,25 -56,36 -72,61 -46,45 -45,36 -36,40 -51,46 -26,25 -45,41 -41,41 -61,50 -62,61 -45,41 -51,60 -72,91 -66,92 -86,121 -56,66 -56,50 -26,26 -82,51 -91,50 -87,41 -67,31 -40,55 -56,56 -67,61 -56,61 -41,50 -61,61 -112,91 -41,46 -56,45 -56,51 -41,41 -61,65 -51,26 -112,91 -143,122 -66,51 -62,35 -56,31 -66,30 -46,36 -61,45 -67,51 -56,31 -51,60 -66,36 -118,61 h -5 l -82,30 -164,-39 -102,-30 -87,-15 -62,-10 -133,26 -87,21 -87,41 h -61 l -61,35 -108,11 -66,5 -82,-4 -282,-35 -143,-29 -67,-25 -62,-15 -102,-50 -77,-45 -5,-5 -113,-45 -103,-40 -76,-20 -72,-9 -113,30 -92,41 -92,21 -133,56 -122,40 -215,57 -143,41 -133,56 -97,50 -67,31 -61,25 -26,11 -25,10 -21,5 -10,15 -36,5 h -36 l -10,10 -25,36 -51,35 -92,56 -77,61 -66,51 -87,50 -61,51 -57,25 -143,77 h -76 l -52,5 -61,-5 -77,11 h -199 l -118,6 -72,10 -46,11 h -10 l -21,5 -56,20 -77,15 -46,31 -76,40 -61,36 -62,35 -92,51 -92,56 -143,76 -107,61 -62,25 -112,51 -256,26 -72,-20 -87,-35 -92,-55 -118,-60 -16,-10 -71,-40 -165,-110 -56,-25 -92,-60 -57,-71 -62,-50 -61,-50 -72,-80 -82,-45 -57,-56 -61,-65 -57,-50 -103,-116 -46,-50 -36,-50 -26,-41 -31,-30 -66,-30 -36,31 10,55 88,30 82,131 46,20 41,45 57,45 36,30 31,35 30,41 31,50 36,40 41,15 36,25 26,25 31,30 31,36 25,25 41,30 31,25 21,30 -16,25 -41,-20 -25,-10 -21,-15 -25,-15 -41,-25 -52,-35 -36,-30 -36,-20 -30,-5 -31,5 -16,-75 -25,10 -21,-35 10,-21 10,-40 -10,-20 -31,15 h -35 l -11,10 -10,21 -36,-5 h -82 l -30,-20 35,-15 h 16 l 56,-21 26,-20 -1,-30 -92,10 -123,-10 -51,-35 -41,-40 h -36 l -51,21 -41,20 -51,30 -36,21 10,-106 h -31 l -35,151 -20,5 -31,-15 -16,-5 -25,5 -41,21 -67,20 -51,-5 -36,-10 -10,-5 -51,-45 -52,-50 -31,-76 -35,-20 -52,-40 h -51 l -56,-50 -46,30 -31,-10 -52,-50 -30,5 -5,51 v 106 l -51,70 -71,41 -62,56 -81,40 -82,-10 -62,16 -46,-15 -41,40 -56,25 -92,76 -112,76 -72,26 -77,-5 -30,-5 -67,-40 -57,-35 -41,-61 -25,-45 -31,-45 -16,-50 v -31 l -46,-55 h -26 l -46,15 -36,26 1,25 20,20 5,25 11,20 h 46 l 10,20 -5,20 -26,36 -15,10 -36,10 -30,-5 -26,-20 -26,-15 -41,35 -5,31 -5,30 h -15 l -16,-65 16,-31 30,-25 21,-35 -6,-10 -5,-16 -25,6 -57,-10 -25,-20 -31,-41 -51,-15 -36,6 -41,10 -87,35 -36,10 -25,-9 -41,-16 -41,11 -21,-5 -20,-5 -31,-20 -5,-20 v -26 l 10,-20 41,-20 h 61 l 77,-11 92,-25 56,-10 5,30 41,-5 46,-21 21,-20 30,-15 36,30 41,25 41,-5 5,-20 11,-25 20,-16 26,-15 35,-10 41,25 16,5 25,-76 41,-50 -5,-35 25,-46 10,-25 36,-30 72,14 71,15 47,5 51,-10 51,-15 72,10 56,-6 82,5 h 77 l 76,-10 72,-16 67,-35 51,-16 15,-30 36,-15 35,-10 47,-11 77,71 66,55 31,-15 25,-81 31,-35 25,-16 41,-10 92,-10 46,-15 52,9 h 56 l 67,40 56,-20 31,-25 51,-51 41,-5 41,10 40,-5 41,-5 41,4 57,5 25,30 1,46 10,30 26,40 36,30 20,-45 -26,-86 -15,-35 -21,-35 -16,-35 -10,-26 21,-25 35,-45 15,-31 v -75 l 5,-25 -5,-21 -15,-25 -16,-15 -20,-10 -26,-10 -36,-5 -46,6 -82,-10 -61,-15 -67,-5 -71,25 -31,16 -56,10 -77,5 -41,46 -97,25 -67,21 -66,5 H -3 l -10,-30 v -25 l 10,-21 15,-10 41,-25 57,5 81,-26 21,-30 -36,-45 -16,-31 -5,-20 -36,-35 -10,-35 -41,-40 -51,20 -16,30 -30,41 -16,20 -20,35 -15,41 5,15 -10,50 -31,41 -35,20 -26,30 -41,21 -20,15 -36,30 -56,10 -46,26 -92,40 h -16 l -15,-10 v -20 l 15,-20 46,-30 56,-16 67,-25 36,-51 35,-25 46,-45 31,-76 20,-31 31,-60 56,-101 51,-10 15,-21 -31,-35 -20,-40 -16,-25 -26,-51 -25,-35 -6,-35 -46,15 -46,-5 -41,16 -25,15 -36,35 -20,41 -5,55 36,15 -5,25 -10,56 5,15 20,25 6,20 v 15 l -26,36 -5,50 -10,30 -15,21 -21,35 -5,25 -25,15 -41,41 -25,45 -41,41 -67,40 -46,26 -51,30 -31,-5 -56,21 -51,15 -72,5 -112,-10 -46,-25 -36,-20 -57,-15 -66,-20 -46,-10 -36,-20 -5,-5 -26,-15 -56,-35 -31,-20 -10,-5 -16,-5 -31,-15 -35,-20 -36,-25 -16,-10 -56,-45 -67,-45 -128,-111 -62,-60 -56,-71 -67,-110 -41,-41 -11,-30 -20,-35 -16,-40 -36,-41 -51,-60 -57,-35 -102,-55 -82,-45 -98,-35 -76,-10 -41,-5 -169,-20 -88,-30 -25,-9 -57,-16 -87,-15 -66,-25 -51,-30 -6,-5 -20,-10 -41,-20 -10,-5 -47,-20 -25,-15 -21,20 -35,11 -52,-5 -46,-15 v -36 l 26,-40 v -20 l -52,-45 -51,-46 -67,-45 -25,-15 -82,-60 -47,-30 -46,-25 -31,-21 -5,1 -30,-31 -36,-20 -26,-25 -26,-15 -97,-20 h -46 l -15,10 -21,16 -41,-10 -36,-20 v -16 l 5,-15 16,-20 20,-10 62,25 46,-5 15,-15 v -15 l -139,-111 -30,-30 -31,-25 -21,-15 -20,-15 -21,-5 -15,-5 -5,10 v 40 l -5,35 -26,46 -66,50 -31,16 -46,15 -61,5 -92,-10 -87,-30 -67,-15 -56,-5 -51,6 -62,10 h -76 l -57,-10 -31,-20 -51,-45 -10,-10 -5,-15 -16,-21 -15,-10 -210,-125 25,-66 56,-30 31,-5 36,-31 17,-80 182,-6 56,-3 41,-2 842,-799 1715,-1619 6,-5 345,1018 1559,993 1354,873 303,196 932,-8 1346,5 1445,-883 1379,-848 2914,-1778 613,-376 3096,-2093 z m -18988,7013 16,15 15,30 21,15 36,-30 v -25 l -11,-96 -26,-40 -61,-20 -57,10 1,40 -41,51 -5,60 20,11 11,-1 41,-10 z m 206,176 -62,10 -132,61 -41,61 -31,45 46,35 36,5 11,10 10,15 5,46 31,-10 15,-56 5,-10 -5,-61 35,-45 57,-10 66,-16 67,-40 20,-41 -31,-25 -25,-5 -31,16 z m -122,383 -15,41 -20,25 -57,20 -20,1 -31,-5 -5,-46 -36,-50 -10,45 -36,56 -41,20 -10,30 6,86 15,30 -15,36 -10,80 46,26 102,-97 56,-70 62,-6 15,-20 15,-15 56,-61 31,-45 30,-46 10,-65 -25,5 h -21 l -56,5 z m 893,471 -21,-10 -56,-15 -51,21 -46,20 -36,56 5,55 -35,41 -36,25 5,30 10,25 36,25 51,5 41,-5 36,25 41,40 72,51 46,-6 51,-45 41,-36 15,-35 36,-35 -10,-31 -21,-40 31,-50 15,-61 15,-60 -15,10 -21,15 -10,15 -41,10 -15,25 -5,31 -46,10 -31,-25 -46,-25 z"/>
        <path id="1732" d="m -5275,-14091 -17,80 -36,31 -31,5 -56,30 -25,66 210,125 15,10 16,21 5,15 10,10 51,45 31,20 57,10 h 76 l 62,-10 51,-6 56,5 67,15 87,30 92,10 61,-5 46,-15 31,-16 66,-50 26,-46 5,-35 v -40 l 5,-10 15,5 21,5 20,15 21,15 31,25 30,30 139,111 v 15 l -15,15 -46,5 -62,-25 -20,10 -16,20 -5,15 v 16 l 36,20 41,10 21,-16 15,-10 h 46 l 97,20 26,15 26,25 36,20 30,31 5,-1 31,21 46,25 47,30 82,60 25,15 67,45 51,46 52,45 v 20 l -26,40 v 36 l 46,15 52,5 35,-11 21,-20 25,15 47,20 10,5 41,20 20,10 6,5 51,30 66,25 87,15 57,16 25,9 88,30 169,20 41,5 76,10 98,35 82,45 102,55 57,35 51,60 36,41 16,40 20,35 11,30 41,41 67,110 56,71 62,60 128,111 67,45 56,45 16,10 36,25 35,20 31,15 16,5 10,5 31,20 56,35 26,15 5,5 36,20 46,10 66,20 57,15 36,20 46,25 112,10 72,-5 51,-15 56,-21 31,5 51,-30 46,-26 67,-40 41,-41 25,-45 41,-41 25,-15 5,-25 21,-35 15,-21 10,-30 5,-50 26,-36 v -15 l -6,-20 -20,-25 -5,-15 10,-56 5,-25 -36,-15 5,-55 20,-41 36,-35 25,-15 41,-16 46,5 46,-15 6,35 25,35 26,51 16,25 20,40 31,35 -15,21 -51,10 -56,101 -31,60 -20,31 -31,76 -46,45 -35,25 -36,51 -67,25 -56,16 -46,30 -15,20 v 20 l 15,10 h 16 l 92,-40 46,-26 56,-10 36,-30 20,-15 41,-21 26,-30 35,-20 31,-41 10,-50 -5,-15 15,-41 20,-35 16,-20 30,-41 16,-30 51,-20 41,40 10,35 36,35 5,20 16,31 36,45 -21,30 -81,26 -57,-5 -41,25 -15,10 -10,21 v 25 l 10,30 h 26 l 66,-5 67,-21 97,-25 41,-46 77,-5 56,-10 31,-16 71,-25 67,5 61,15 82,10 46,-6 36,5 26,10 20,10 16,15 15,25 5,21 -5,25 v 75 l -15,31 -35,45 -21,25 10,26 16,35 21,35 15,35 26,86 -20,45 -36,-30 -26,-40 -10,-30 -1,-46 -25,-30 -57,-5 -41,-4 -41,5 -40,5 -41,-10 -41,5 -51,51 -31,25 -56,20 -67,-40 h -56 l -52,-9 -46,15 -92,10 -41,10 -25,16 -31,35 -25,81 -31,15 -66,-55 -77,-71 -47,11 -35,10 -36,15 -15,30 -51,16 -67,35 -72,16 -76,10 h -77 l -82,-5 -56,6 -72,-10 -51,15 -51,10 -47,-5 -71,-15 -72,-14 -36,30 -10,25 -25,46 5,35 -41,50 -25,76 -16,-5 -41,-25 -35,10 -26,15 -20,16 -11,25 -5,20 -41,5 -41,-25 -36,-30 -30,15 -21,20 -46,21 -41,5 -5,-30 -56,10 -92,25 -77,11 h -61 l -41,20 -10,20 v 26 l 5,20 31,20 20,5 21,5 41,-11 41,16 25,9 36,-10 87,-35 41,-10 36,-6 51,15 31,41 25,20 57,10 25,-6 5,16 6,10 -21,35 -30,25 -16,31 16,65 h 15 l 5,-30 5,-31 41,-35 26,15 26,20 30,5 36,-10 15,-10 26,-36 5,-20 -10,-20 h -46 l -11,-20 -5,-25 -20,-20 -1,-25 36,-26 46,-15 h 26 l 46,55 v 31 l 16,50 31,45 25,45 41,61 57,35 67,40 30,5 77,5 72,-26 112,-76 92,-76 56,-25 41,-40 46,15 62,-16 82,10 81,-40 62,-56 71,-41 51,-70 v -106 l 5,-51 30,-5 52,50 31,10 46,-30 56,50 h 51 l 52,40 35,20 31,76 52,50 51,45 10,5 36,10 51,5 67,-20 41,-21 25,-5 16,5 31,15 20,-5 35,-151 h 31 l -10,106 36,-21 51,-30 41,-20 51,-21 h 36 l 41,40 51,35 123,10 92,-10 1,30 -26,20 -56,21 h -16 l -35,15 30,20 h 82 l 36,5 10,-21 11,-10 h 35 l 31,-15 10,20 -10,40 -10,21 21,35 25,-10 16,75 31,-5 30,5 36,20 36,30 52,35 41,25 25,15 21,15 25,10 41,20 16,-25 -21,-30 -31,-25 -41,-30 -25,-25 -31,-36 -31,-30 -26,-25 -36,-25 -41,-15 -36,-40 -31,-50 -30,-41 -31,-35 -36,-30 -57,-45 -41,-45 -46,-20 -82,-131 -88,-30 -10,-55 36,-31 66,30 31,30 26,41 36,50 46,50 103,116 57,50 61,65 57,56 82,45 72,80 61,50 62,50 57,71 92,60 56,25 165,110 71,40 16,10 118,60 92,55 87,35 72,20 256,-26 112,-51 62,-25 107,-61 143,-76 92,-56 92,-51 62,-35 61,-36 76,-40 46,-31 77,-15 56,-20 21,-5 h 10 l 46,-11 72,-10 118,-6 h 199 l 77,-11 61,5 52,-5 h 76 l 143,-77 57,-25 61,-51 87,-50 66,-51 77,-61 92,-56 51,-35 25,-36 10,-10 h 36 l 36,-5 10,-15 21,-5 25,-10 26,-11 61,-25 67,-31 97,-50 133,-56 143,-41 215,-57 122,-40 133,-56 92,-21 92,-41 113,-30 72,9 76,20 103,40 113,45 5,5 77,45 102,50 62,15 67,25 143,29 282,35 82,4 66,-5 108,-11 61,-35 h 61 l 87,-41 87,-21 133,-26 62,10 87,15 102,30 164,39 82,-30 h 5 l 118,-61 66,-36 51,-60 56,-31 67,-51 61,-45 46,-36 66,-30 56,-31 62,-35 66,-51 143,-122 112,-91 51,-26 61,-65 41,-41 56,-51 56,-45 41,-46 112,-91 61,-61 41,-50 56,-61 67,-61 56,-56 40,-55 67,-31 87,-41 91,-50 82,-51 26,-26 56,-50 56,-66 86,-121 66,-92 72,-91 51,-60 45,-41 62,-61 61,-50 41,-41 45,-41 26,-25 51,-46 36,-40 45,-36 46,-45 72,-61 56,-36 35,-25 26,-15 46,-16 112,-66 46,-25 41,-36 72,-45 122,-87 92,-56 56,-45 51,-36 36,-10 31,15 46,20 h 41 l 46,-6 127,-46 67,-25 66,-31 61,-35 97,-56 67,-46 86,-56 41,-5 67,-51 92,-51 76,-51 168,-101 133,-77 92,-36 72,-35 66,-31 72,-35 96,-51 123,-51 143,-77 163,-56 67,-26 86,-66 82,-15 62,-16 35,-10 26,-5 102,-26 56,-21 67,-15 92,-16 56,-10 77,-11 66,-20 56,-15 41,-11 67,-35 86,-46 87,-36 57,-26 51,-25 35,-20 61,-41 41,-21 41,-10 41,-20 51,-21 41,-10 46,-20 61,-41 41,-51 35,-25 82,-21 h 21 l 20,20 21,10 25,-10 26,-10 25,-6 21,-5 25,-15 31,-20 31,-16 25,-25 15,-10 57,-11 81,-5 67,-10 31,-6 71,-20 66,-36 62,-20 107,-46 66,-21 97,-56 57,-21 91,-40 138,-31 67,-16 102,-56 76,-41 77,-36 158,-61 102,-41 62,-15 117,-36 15,-26 67,-30 71,-41 51,-16 17,998 15,428 34,1146 12,433 13,490 33,1442 v 71 l 2,30 5,169 4,113 4,101 47,1669 39,1392 16,614 7,240 2,47 2,71 45,1643 18,714 4,167 14,515 16,629 28,1356 1,79 5,262 1,57 -23,12 -81,43 -86,22 -66,27 -50,38 -41,29 -44,44 -40,26 -23,15 -21,12 h -27 l -34,-10 -36,-31 -26,-24 -41,-36 -36,-9 -36,-5 -51,16 -31,15 -47,19 -38,17 -41,29 -22,17 -42,38 -18,22 -12,15 -20,35 -39,47 -28,34 -31,33 -45,42 -16,22 -4,5 -19,39 -3,22 -3,30 4,34 21,57 39,42 105,92 32,40 27,50 16,45 24,46 20,32 14,20 8,10 25,44 16,30 5,23 4,27 7,40 16,50 16,45 25,91 43,73 26,43 24,35 41,50 21,40 20,46 6,40 11,26 4,9 1,59 -10,62 -26,76 -30,70 -30,66 -26,70 -4,20 -5,28 -3,66 -2,26 -1,22 11,85 6,56 -4,31 -2,12 -4,17 -13,15 -13,14 -35,31 -40,32 -25,26 -5,10 -4,10 v 13 l 2,11 16,25 31,20 41,29 26,14 4,3 33,21 3,4 21,19 19,42 6,30 1,9 5,36 -4,29 -14,47 -14,56 -7,58 5,40 10,42 21,34 20,40 16,30 15,41 11,20 4,32 6,53 -9,56 -16,65 -10,23 -12,23 -27,53 -6,12 -35,68 -19,46 -7,26 -5,22 7,33 3,15 6,47 v 51 l -10,52 -18,28 -8,11 -40,39 -40,28 -45,36 -60,27 -60,52 -25,41 -25,45 -4,7 -9,31 -14,50 -9,35 -9,36 -19,66 -6,46 -1,15 -5,61 -8,40 -14,56 -14,46 -29,41 -29,42 -30,51 -29,41 -44,67 -47,92 -46,85 -10,46 -8,17 -8,34 -9,50 -7,46 -6,47 -3,22 -4,36 6,70 21,60 v 66 l 1,76 -10,55 -19,33 -60,60 -9,8 -45,41 -31,30 -31,36 -4,5 -23,33 -17,36 -6,16 -4,16 -6,29 6,40 15,41 19,38 16,41 11,37 5,40 1,50 v 33 l -1,10 -4,31 -5,32 -7,22 -5,17 -4,11 -20,61 -5,15 -12,42 -2,8 -6,56 -2,18 -3,22 v 71 l 11,90 8,53 3,23 11,65 5,61 v 34 l -1,20 -9,46 -19,45 -20,21 -28,35 -42,29 -55,51 -29,47 -14,50 1,26 3,20 14,56 22,69 29,69 17,45 10,37 1,8 -3,50 -13,37 -13,11 -13,9 -31,6 h -25 l -45,-19 -46,-25 -13,-8 -33,-19 -30,-19 -36,-9 -36,-5 -56,13 -30,13 -6,4 -21,40 -6,41 10,41 18,58 27,55 8,19 15,28 31,37 31,43 16,36 5,17 3,18 6,40 -3,37 -21,39 -20,25 -26,25 -41,41 -66,41 -30,18 -52,32 -11,5 -23,19 -21,20 -7,24 -4,18 -1,49 11,47 11,50 4,21 6,29 11,63 5,31 -5,52 -2,29 -3,27 -14,50 -26,54 -39,47 -18,17 -30,24 -72,61 -65,49 -40,42 -28,30 -5,5 -25,51 -9,37 6,61 18,39 22,49 40,43 37,37 31,34 5,6 26,29 25,33 16,22 16,23 31,43 34,55 9,17 12,23 16,28 6,38 -10,50 -25,36 -24,27 -7,8 -40,21 -52,23 -36,12 -30,15 -26,21 -26,25 -12,32 -5,20 -3,19 -4,42 -5,45 5,54 5,50 4,48 1,9 -5,54 -5,60 -5,40 -19,101 -21,81 -10,26 -24,48 -25,41 -45,47 -50,27 -41,6 -46,-2 -36,-5 -41,-4 -57,2 -40,1 h -15 l -35,11 -46,22 -41,34 -36,26 -19,14 -30,31 -15,15 -52,50 -68,57 -40,36 -72,65 -54,49 -33,32 -87,91 -112,111 -31,33 -54,59 -40,51 -84,74 -21,16 -41,35 -31,36 -17,21 -44,67 -40,42 -10,10 -49,52 -80,73 -28,31 -53,63 -28,32 -29,39 -66,88 -3,5 -58,118 -61,106 -8,12 -29,59 -13,26 -41,75 -29,44 -33,26 -40,16 -41,10 -56,8 -21,2 -52,6 -61,20 -56,21 -51,35 -23,17 -16,15 -23,23 -5,6 -56,84 -40,41 -22,24 -8,8 -33,34 -15,16 -15,30 -19,63 -6,19 -10,44 -11,51 -19,50 -21,20 -36,21 -82,-5 -21,-3 -14,-4 -62,-18 -77,2 -26,7 -36,12 -55,20 -36,15 -8,2 -37,6 -36,16 -18,11 -17,10 -40,31 -15,9 -24,12 -36,17 -51,29 -14,10 -22,15 -19,17 -22,19 -26,25 -30,20 -33,23 -65,42 -96,58 -85,68 -45,19 -24,8 -62,21 -27,2 -30,1 -5,1 -37,-9 -67,-24 -48,-44 -42,-52 -27,-57 -20,-58 -21,-76 -3,-10 -19,-55 -23,-69 -33,-75 -6,-11 -25,-36 -36,-50 -36,-35 -36,-30 -45,-30 -16,-10 -62,-20 -68,-4 -45,5 -46,20 -51,34 -31,37 -28,33 -20,28 -19,32 -15,25 -44,67 -42,57 -51,51 -46,40 -13,9 -23,14 -95,63 -45,21 -44,20 -26,12 -30,13 -47,20 -41,27 -35,36 -34,42 -25,36 -11,27 -7,19 -11,50 -3,15 -4,41 1,40 -8,56 -8,70 -14,71 -7,80 -5,71 v 75 l -4,62 -1,64 -3,30 -3,22 -4,24 -20,27 -20,9 -16,4 -23,-3 -13,-3 -46,-13 -26,-10 -63,-33 -39,-18 -54,-10 -41,-6 -16,-3 -33,5 -19,4 -27,7 -33,4 h -8 l -41,-9 -41,-14 -31,-6 -14,-2 -27,-3 -86,-4 -68,10 -92,25 -30,14 -33,18 -20,15 -20,19 -45,44 -35,56 -14,36 -6,26 -1,15 5,39 10,41 13,44 6,35 -3,52 v 44 l -5,42 -3,25 -4,17 -19,22 -25,11 -30,11 -104,10 -51,15 -30,16 -25,26 -25,36 -14,31 -22,46 -11,36 -14,40 -26,36 -24,21 -30,26 -25,21 -23,29 -21,32 v 26 l -3,45 v 15 l 3,23 15,52 32,78 31,86 20,76 6,75 3,27 1,18 2,61 2,70 1,21 v 29 l 3,55 v 36 l -5,40 -4,24 -8,37 -24,60 -23,43 -6,10 -37,43 -26,22 -17,12 -54,31 -61,21 -118,6 -57,-15 -23,-9 -18,-6 -36,-15 -28,-5 h -26 l -20,11 -16,30 -3,5 -4,35 v 45 l 12,36 9,22 8,23 22,61 6,19 36,75 47,55 56,45 57,50 28,25 18,16 45,48 47,57 27,39 13,46 12,60 1,39 v 12 l -5,50 -2,23 -5,28 -19,46 -29,46 -16,39 -20,39 -6,11 -26,49 -19,61 -5,86 10,49 15,41 39,58 37,40 21,29 28,39 20,25 11,36 1,13 1,31 -4,18 -8,18 -26,31 -10,7 -16,9 -15,8 -5,1 h -41 l -21,-3 -10,-3 -42,-14 -27,-12 -13,-8 -41,-30 -41,-35 -26,-17 -10,-8 -42,-55 -29,-29 -27,-15 -7,-4 -24,-11 -48,-8 -25,1 h -9 l -38,22 -34,30 -30,40 -12,18 -17,30 -20,46 -6,31 -1,16 -5,44 v 47 l -5,55 -10,61 -15,40 -34,56 -14,21 -19,24 -37,37 -4,3 -40,39 -16,15 -29,26 -33,25 -17,12 -51,44 -4,3 -51,22 -30,-3 -51,-5 -82,-36 -55,-35 -21,-15 -69,-58 -11,-16 -21,-28 -16,-30 -3,-18 v -15 l 7,-27 19,-36 14,-31 11,-11 29,-31 35,-36 43,-50 36,-45 31,-45 15,-36 5,-35 -10,-34 -17,-46 -32,-68 -55,-94 -5,-18 -16,-51 -10,-31 -10,-30 -26,-45 -31,-50 -26,-50 -11,-20 -13,-28 -22,-50 -26,-38 -21,-25 -38,-19 -24,-8 -12,-3 -30,2 h -12 l -20,5 -24,12 -28,8 -8,3 -36,11 -46,1 -27,-2 -13,-4 -20,-10 -18,-11 -24,-29 -9,-13 -26,-52 -16,-65 -24,-75 -28,-46 -46,-37 -47,-29 -58,-23 -8,-1 -84,-7 -46,5 -19,2 -9,4 -28,17 -35,20 -31,46 -20,45 -10,56 v 55 l -4,48 -19,46 -9,15 -19,22 -38,43 -64,47 -4,3 -46,21 -49,26 -52,33 -39,24 -11,8 -18,21 -21,27 -20,39 -16,46 -8,20 -4,15 -14,38 -5,13 -19,46 -6,10 -14,26 -5,13 -11,36 -7,17 -9,18 -30,71 -20,41 -33,64 -41,77 -7,15 -29,61 -33,44 -32,33 -40,38 -25,41 -21,50 -4,16 -2,19 -4,45 7,66 3,15 11,40 16,55 6,55 2,55 -8,82 -14,80 -21,66 -35,61 -36,45 -44,48 -40,36 -64,42 -47,19 -5,2 -56,25 -40,17 -6,3 -40,16 -35,27 -17,11 -21,17 -51,50 -36,31 -45,70 -13,33 -10,35 -3,50 -5,56 8,45 11,25 14,20 9,8 31,20 25,20 31,14 26,30 36,37 19,41 11,40 1,39 1,52 2,60 12,55 34,95 18,46 15,38 8,19 14,42 -2,80 -9,45 -19,46 -24,61 -9,51 -2,33 v 11 l 7,46 4,20 23,90 34,115 42,116 3,9 33,74 19,105 6,46 6,48 -7,46 -4,29 -19,69 -24,46 -40,46 -19,17 -25,19 -17,15 -25,17 -33,15 -27,9 -55,4 -7,1 -72,10 -25,-3 -72,-11 -68,-20 -61,-19 -56,-16 -38,-7 -15,-3 -57,2 -41,6 -27,11 -12,7 -41,35 -55,47 -35,31 -24,20 -3,3 -28,34 -13,26 -5,16 -14,42 -5,48 -1,23 v 93 l 5,76 -5,30 -5,50 -4,31 -20,75 -19,51 -18,49 -9,53 -8,70 -4,56 -8,66 -8,85 -8,53 -14,71 -19,43 -17,32 -10,46 -10,40 -9,60 -5,28 -6,23 -14,54 -2,6 -30,46 -31,30 -44,33 -38,17 -27,16 -16,5 -56,12 -46,11 -66,17 -60,16 -15,3 -32,5 -56,6 -41,7 h -26 l -51,-15 -26,-5 -36,-10 -20,-5 -30,-4 -13,-1 -39,10 -26,7 -11,6 -26,11 -24,10 -41,16 -77,37 -39,11 -115,34 -125,35 -65,16 -51,16 -46,15 -62,20 -40,21 -51,27 -10,5 -40,21 -87,30 -7,2 -104,34 -80,13 -93,10 h -72 l -13,-3 -59,-12 -82,-34 -27,-14 -22,-12 -37,-29 -42,-39 -22,-35 -9,-27 -47,-125 -31,-202 -17,-107 -61,-129 -47,-39 -56,-31 -83,-40 -87,-45 -81,-59 -53,-71 -11,-15 -55,-73 -80,-88 -79,-162 -13,-27 -73,-110 -19,-22 -67,-45 -72,-45 -61,-51 -12,-8 -36,-25 -138,-14 -52,1 -178,3 H 315 l -77,-20 -30,-11 -190,-102 -6,3 -67,-40 -67,-56 -61,-49 -82,-108 -3,-6 -69,-198 -2,-9 -4,-31 -6,-50 -6,-106 -5,-105 -1,-96 -5,-90 -11,-56 -12,-55 -83,-145 -35,-60 -9,-21 -21,-56 1,-14 25,-196 20,-81 3,-12 30,-122 -4,-62 -41,-105 -10,-16 -24,-27 -25,-24 -23,-19 -25,-9 -57,-16 -278,78 -135,59 -18,10 -29,20 -139,102 -36,25 -17,7 -75,26 -149,-25 -157,-27 -13,-1 -138,66 -56,52 -103,205 -7,10 -80,78 -204,96 -10,5 -139,65 -22,10 -89,64 -6,7 -85,150 -27,71 -61,161 -11,16 -55,70 -90,68 -24,13 -16,4 -112,16 -253,34 -11,1 h -10 l -47,-6 -58,-13 -73,-39 -127,-70 -4,-1 -53,-9 h -62 l -82,50 -77,46 -25,30 -51,56 -34,37 -82,89 -78,38 -99,-32 -61,-46 -42,-58 -17,-79 -37,-169 -39,-86 -8,-7 -258,-178 -81,-42 -84,-23 -93,-25 -70,-14 -397,-60 -6,-1 -136,-20 -25,-14 -41,-23 -100,-114 -150,-115 -50,-37 -142,-44 -13,-3 -18,-1 -145,14 -134,44 -231,74 -8,2 -135,31 -123,28 -88,37 -53,54 -30,52 -19,35 -25,81 -10,100 -4,39 -6,57 -11,24 -25,56 -6,5 -52,57 -74,46 -67,4 -25,-5 -234,-84 -91,-57 -111,-70 -123,-20 -194,-33 -44,-11 -67,-40 -8,-11 -51,-85 -8,-15 -21,-90 -33,-154 -8,-27 -6,-19 -46,-101 -50,-42 -120,-39 -129,-43 -117,-87 -36,-50 -8,-27 -29,-134 -8,-36 -12,-50 -3,-6 -73,-121 -7,-8 -19,-14 -75,-41 -14,-6 -56,-14 -13,-3 -162,-37 -67,-15 -174,-60 -126,-94 -29,-22 -147,-49 -76,9 -7,1 -82,10 -134,41 -215,29 -239,58 -23,4 h -35 l -215,-6 -365,-134 -290,-106 -199,-36 -32,-9 -214,-63 -11,-6 -108,-74 -50,-56 -11,-15 -32,-82 -9,-41 -5,-24 -22,-113 15,-349 2,-33 1,-60 -46,-173 -22,-38 -106,-183 -76,-117 -242,-369 -48,-137 -6,-127 -7,-34 -34,-168 -7,-17 -75,-157 -57,-81 -77,-70 -75,-52 -147,-74 -207,-55 -28,-5 -138,-9 -88,-10 -150,-85 -54,-100 -7,-16 -15,-66 v -25 l 5,-156 -1,-70 v -17 l -19,-111 -29,-66 -112,-108 -15,-10 -59,-18 -5,-1 -33,7 -31,7 -33,20 -33,23 -83,99 -72,86 -9,9 -16,12 -63,39 -116,26 -10,-2 -114,-42 -102,-38 -73,33 -18,21 -78,87 -56,26 -79,36 -138,47 -38,14 -141,10 -67,-13 -123,-74 -51,-48 -94,-92 -44,-24 -51,-20 -36,-10 -62,-15 -25,-13 -36,-22 -26,-20 -44,-59 -13,-17 -82,-121 -72,-105 -47,-55 -46,-51 -48,-34 -36,-23 -44,-23 -48,-13 -6,-1 -46,11 -13,4 -67,47 -66,94 -46,65 -37,53 -40,34 -25,19 -9,5 -159,70 -140,32 16,-931 6,-394 27,-881 16,-528 8,-157 24,-512 20,-619 17,-583 3,-87 12,-423 43,-1765 55,-2111 9,-370 19,-619 46,-1338 7,-96 33,-432 47,-1510 15,-480 73,-2430 42,-1418 1,-57 8,-255 42,-1990 2,-126 2,-38 11,-743 5,-270 50,-2658 v -10 l 2,-184 7,-468 4,-331 19,-933 24,-1099 1,-58 6,-328 33,-1510 1092,-31 364,-5 1116,-13 824,-11 305,-3 1850,-17 1169,-19 534,-16 416,-14 467,-12 387,-10 26,-1 113,-4 2350,-88 4,22 v 10 l -5,15 5,20 h 51 l 31,-15 41,-26 64,-35 z"/>
        <path id="1737" d="m -5,-13870 -40,10 -41,10 -11,1 -20,-11 5,-60 41,-51 -1,-40 57,-10 61,20 26,40 11,96 v 25 l -36,30 -21,-15 -15,-30 z"/>
        <path id="1739" d="m 201,-13694 46,-15 31,-16 25,5 31,25 -20,41 -67,40 -66,16 -57,10 -35,45 5,61 -5,10 -15,56 -31,10 -5,-46 -10,-15 -11,-10 -36,-5 -46,-35 31,-45 41,-61 132,-61 z"/>
        <path id="1741" d="m 79,-13311 36,-20 56,-5 h 21 l 25,-5 -10,65 -30,46 -31,45 -56,61 -15,15 -15,20 -62,6 -56,70 -102,97 -46,-26 10,-80 15,-36 -15,-30 -6,-86 10,-30 41,-20 36,-56 10,-45 36,50 5,46 31,5 20,-1 57,-20 20,-25 z"/>
        <path id="1746" d="m 972,-12840 5,56 46,25 31,25 46,-10 5,-31 15,-25 41,-10 10,-15 21,-15 15,-10 -15,60 -15,61 -31,50 21,40 10,31 -36,35 -15,35 -41,36 -51,45 -46,6 -72,-51 -41,-40 -36,-25 -41,5 -51,-5 -36,-25 -10,-25 -5,-30 36,-25 35,-41 -5,-55 36,-56 46,-20 51,-21 56,15 z"/>
      </g>
    </clipPath>
    <clipPath clipPathUnits="userSpaceOnUse" id="clipPath19334">
      <path style="color:#000000;fill:#ffffff;stroke-width:241.701;stroke-linejoin:round;-inkscape-stroke:none" d="m 18.664636,-2.09762 -0.02711,0.0085 -0.03776,0.021806 -0.03562,0.015949 -0.008,0.013821 -0.0622,0.019137 -0.03297,0.00797 -0.05422,0.021795 -0.084,0.032428 -0.04093,0.019148 -0.0404,0.021796 -0.05423,0.02977 -0.03562,0.0085 -0.07337,0.016479 -0.04838,0.021266 -0.0303,0.011173 -0.05158,0.02977 -0.03509,0.011162 -0.05688,0.024454 -0.03297,0.010633 -0.03509,0.019137 -0.03774,0.010633 -0.01648,0.0032 -0.03563,0.00532 -0.04306,0.00266 -0.0303,0.00585 -0.008,0.00532 -0.01329,0.013291 -0.01649,0.0085 -0.01648,0.010633 -0.01329,0.00797 -0.01116,0.00266 -0.01329,0.00319 -0.01382,0.00532 -0.01329,0.00532 -0.01116,-0.00532 -0.01063,-0.010633 h -0.01117 l -0.04359,0.011163 -0.01861,0.013291 -0.0218,0.027123 -0.03243,0.021795 -0.02446,0.010633 -0.0218,0.00532 -0.02711,0.011162 -0.02179,0.010633 -0.0218,0.00532 -0.02181,0.011163 -0.03243,0.021795 -0.01861,0.010633 -0.02711,0.013291 -0.0303,0.013831 -0.04626,0.019137 -0.04572,0.024454 -0.03562,0.018608 -0.02181,0.00585 -0.02977,0.00797 -0.03509,0.010633 -0.04093,0.00585 -0.02978,0.00532 -0.04891,0.00851 -0.03562,0.00797 -0.02978,0.011162 -0.05422,0.013821 -0.01382,0.00266 -0.01861,0.00532 -0.03297,0.0085 -0.04359,0.00797 -0.04572,0.035087 -0.03563,0.013831 -0.08665,0.02977 -0.07603,0.040933 -0.06539,0.027112 -0.05105,0.027123 -0.03827,0.018608 -0.03509,0.016479 -0.03828,0.018608 -0.04891,0.019137 -0.07071,0.040933 -0.08931,0.053705 -0.0404,0.0271119 -0.04892,0.0271119 -0.03562,0.0271119 -0.0218,0.002658 -0.04573,0.0297701 -0.03562,0.0244643 -0.05157,0.0297702 -0.03244,0.0186076 -0.03509,0.0164789 -0.03562,0.0132912 -0.06753,0.0244537 -0.02445,0.003188 h -0.0218 l -0.02445,-0.0106332 -0.01648,-0.007975 -0.01915,0.005316 -0.02711,0.0191479 -0.02977,0.0239241 -0.04891,0.0297702 -0.06487,0.0462492 -0.03828,0.0239242 -0.0218,0.0191372 -0.02446,0.0132912 -0.05954,0.0350971 -0.02445,0.008504 -0.01382,0.007975 -0.01861,0.0132912 -0.02978,0.0191373 -0.03827,0.0324284 -0.02445,0.0239242 -0.02392,0.0191373 -0.01914,0.0212659 -0.02712,0.0244641 -0.01382,0.0132912 -0.02393,0.0217955 -0.02179,0.0217955 -0.03243,0.0265824 -0.03297,0.0324284 -0.02393,0.0217955 -0.02711,0.0318989 -0.03827,0.0483883 -0.03509,0.04890747 -0.04573,0.06432733 -0.02977,0.0350867 -0.02977,0.0265824 -0.01382,0.01383114 -0.0436,0.02711197 -0.04838,0.0265824 -0.04625,0.0217955 -0.03563,0.016479 -0.02127,0.0292406 -0.02977,0.0297702 -0.03562,0.0324388 -0.02977,0.0324285 -0.02181,0.0265824 -0.03243,0.0324285 -0.05954,0.0483779 -0.0218,0.0244537 -0.02978,0.0239242 -0.02977,0.0271223 -0.0218,0.0217955 -0.03243,0.0345571 -0.02711,0.0138208 -0.05955,0.0483779 -0.07602,0.0648672 -0.0351,0.027112 -0.03296,0.0186076 -0.02977,0.0164791 -0.03509,0.0159495 -0.02446,0.0191372 -0.03243,0.0239241 -0.03562,0.0271119 -0.02977,0.0164894 -0.02712,0.0318989 -0.03509,0.0191372 -0.06273,0.0324285 h -0.0027 l -0.0436,0.0159494 -0.08719,-0.0207363 -0.05422,-0.0159495 -0.04625,-0.007975 -0.03297,-0.005316 -0.0707,0.0138207 -0.04626,0.0111729 -0.04625,0.0217955 h -0.03243 l -0.03244,0.0186077 -0.05741,0.005846 -0.03509,0.002658 -0.0436,-0.002128 -0.14992,-0.0186076 -0.07603,-0.0154199 -0.03562,-0.0132912 -0.03297,-0.007975 -0.05422,-0.0265824 -0.04093,-0.0239242 -0.0027,-0.002658 -0.06008,-0.0239242 -0.05476,-0.0212659 -0.0404,-0.010633 -0.03827,-0.004776 -0.06008,0.0159494 -0.04891,0.0217955 -0.04892,0.0111625 -0.0707,0.0297702 -0.06487,0.0212659 -0.114304,0.0303102 -0.07602,0.0217955 -0.07071,0.0297702 -0.05157,0.0265824 -0.03563,0.016479 -0.03243,0.0132912 -0.01382,0.005846 -0.01329,0.005316 -0.01116,0.002658 -0.0053,0.00797 -0.01914,0.00266 h -0.01915 l -0.0053,0.00532 -0.01329,0.019148 -0.02711,0.018608 -0.04891,0.02977 -0.04094,0.032428 -0.03509,0.027112 -0.04625,0.026582 -0.03243,0.027112 -0.03031,0.013291 -0.07602,0.040943 h -0.04041 l -0.02764,0.00266 -0.03243,-0.00266 -0.04094,0.00585 h -0.105789 l -0.06274,0.00319 -0.03827,0.00532 -0.02447,0.00585 h -0.0053 l -0.01116,0.00266 -0.02977,0.010633 -0.04093,0.00797 -0.02446,0.016489 -0.0404,0.021266 -0.03243,0.019137 -0.03296,0.018608 -0.04892,0.027112 -0.04891,0.02977 -0.07603,0.040403 -0.05688,0.032439 -0.03297,0.013291 -0.05954,0.027112 -0.1360995,0.013821 -0.038285,-0.010633 -0.046249,-0.018608 -0.048908,-0.029241 -0.062739,-0.031899 -0.0085,-0.00532 L 9.703176,1.4373088 9.615454,1.3788275 9.5856735,1.3655363 9.536766,1.3336375 9.5064665,1.2958925 9.473498,1.2693101 9.4410695,1.2427277 9.402795,1.2001959 9.3591935,1.1762717 9.328894,1.1465015 9.2964655,1.1119444 9.266155,1.085362 9.2114015,1.0236825 9.1869375,0.99710015 9.1678005,0.97051775 9.1539795,0.94872225 9.1375005,0.9327728 9.102414,0.9168234 l -0.019148,0.016479 0.00532,0.0292406 0.04679,0.0159495 0.043591,0.0696541 0.024464,0.010633 0.021795,0.023924 0.030299,0.023924 0.019138,0.015949 0.01649,0.018608 0.015949,0.021796 0.016479,0.026582 0.019137,0.021266 0.021795,0.00797 0.019138,0.013291 0.013831,0.013291 0.016479,0.015949 0.016479,0.019137 0.013291,0.013291 0.021795,0.015949 0.016479,0.013291 0.011173,0.015949 -0.00851,0.013291 L 9.462865,1.3416122 9.449574,1.3362957 9.438411,1.328321 9.42512,1.3203463 9.4033245,1.3070551 9.3756725,1.2884474 9.3565355,1.2724979 9.337398,1.261865 9.321449,1.259205 9.30497,1.261865 9.29647,1.221991 9.283179,1.227311 9.272006,1.208703 9.277326,1.19754 9.282646,1.176274 9.277326,1.165641 9.260847,1.173611 H 9.242231 L 9.236381,1.178931 9.231061,1.190093 9.211924,1.187433 H 9.16833 L 9.152381,1.1768 9.170988,1.16883 h 0.00852 L 9.209278,1.157668 9.223099,1.147035 9.222569,1.131086 9.173651,1.136406 9.108265,1.131086 9.081153,1.112478 9.059347,1.091212 H 9.04021 L 9.013098,1.102375 8.991302,1.113008 8.96419,1.128957 8.945042,1.14012 8.950362,1.083767 H 8.933883 L 8.915276,1.164044 8.904643,1.166704 8.888164,1.158734 8.879664,1.156074 8.866372,1.158734 8.844577,1.169896 8.808951,1.180529 8.781839,1.177869 8.762702,1.172549 8.757382,1.169889 8.73026,1.145962 8.702608,1.1193796 8.686129,1.0789764 8.667521,1.0683435 8.6398795,1.0470776 H 8.612757 l -0.02977,-0.026582 -0.024453,0.015949 -0.016479,-0.00532 -0.027652,-0.026582 -0.015949,0.00266 -0.00266,0.027112 v 0.056363 l -0.027112,0.037215 -0.037745,0.021796 -0.032958,0.02977 -0.043072,0.021266 -0.043591,-0.00532 -0.032958,0.0085 -0.024464,-0.00797 -0.021795,0.021266 -0.02977,0.013291 L 8.153421,1.2708946 8.09387,1.3113076 8.055596,1.3251286 8.014653,1.3224686 7.998704,1.3198086 7.963086,1.2985515 7.9327865,1.2799438 7.9109805,1.2475153 7.897689,1.2235912 7.88121,1.199667 7.872706,1.1730846 V 1.1565952 L 7.848252,1.1273546 h -0.01382 l -0.024464,0.00797 -0.019138,0.013831 5.3e-4,0.013291 0.010633,0.010633 0.00266,0.013291 0.00586,0.010633 h 0.024454 l 0.00532,0.010633 -0.00266,0.010633 -0.01382,0.019137 -0.00798,0.00532 -0.019147,0.00532 -0.01595,-0.00266 -0.01382,-0.010633 -0.013821,-0.00797 -0.021795,0.018608 -0.00266,0.016479 -0.00266,0.015949 h -0.00797 l -0.0085,-0.034557 0.0085,-0.016479 0.01595,-0.013291 0.011162,-0.018608 -0.00319,-0.00532 -0.00266,-0.0085 -0.013292,0.00319 -0.03031,-0.00532 -0.013291,-0.010633 -0.016479,-0.021795 -0.027112,-0.00797 -0.019137,0.00319 -0.021796,0.00532 -0.046259,0.018608 -0.019138,0.00532 -0.013291,-0.00479 -0.021796,-0.0085 -0.021795,0.00585 -0.011173,-0.00266 -0.010633,-0.00266 -0.016479,-0.010633 -0.00266,-0.010633 v -0.013821 l 0.00532,-0.010633 0.021795,-0.010633 h 0.032438 l 0.040933,-0.00585 0.048907,-0.013291 0.029781,-0.00532 0.00266,0.015949 0.021796,-0.00266 0.024454,-0.011173 0.011163,-0.010633 0.015949,-0.00797 0.019137,0.015949 0.021806,0.013291 0.021795,-0.00266 0.00266,-0.010633 0.00585,-0.013291 0.010633,-0.0085 0.013821,-0.00797 0.018607,-0.00532 0.021795,0.013291 0.00852,0.00266 L 7.847736,1.0173276 7.869531,0.9907452 7.866871,0.9721375 7.880162,0.9476838 7.885482,0.9343926 7.90462,0.9184432 l 0.038274,0.007445 0.037755,0.007975 0.024983,0.002658 0.027112,-0.005317 0.027112,-0.007975 0.038285,0.005316 0.02977,-0.003198 0.043591,0.002658 H 8.212445 L 8.252848,0.9226892 8.291122,0.9141852 8.326749,0.8955775 8.353861,0.8870735 8.361831,0.8711241 8.380969,0.8631491 8.399576,0.8578331 8.424569,0.8519871 8.465502,0.8897321 8.500589,0.9189727 8.517068,0.9109977 8.530359,0.8679363 8.546848,0.8493286 8.560139,0.8408246 8.581934,0.8355076 8.630842,0.8301916 8.655295,0.8222166 8.682947,0.8269926 H 8.712718 L 8.748334,0.8482585 8.778114,0.8376256 8.794593,0.8243344 8.821705,0.7972225 8.8435,0.7945645 l 0.021795,0.005316 0.021266,-0.002658 0.021806,-0.002658 0.021795,0.002128 0.030299,0.002658 0.013292,0.0159494 5.3e-4,0.0244537 0.00532,0.0159495 L 8.993434,0.876969 9.012571,0.8929184 9.023204,0.8689942 9.009383,0.8232745 9.001413,0.8046669 8.99024,0.7860592 8.98174,0.7674515 8.97642,0.7536308 8.987583,0.7403396 9.006191,0.7164154 9.014161,0.6999364 V 0.6600455 L 9.016821,0.6467543 9.014161,0.6355814 9.006191,0.6222902 8.997691,0.6143152 8.987058,0.6089982 8.973238,0.6036822 8.9541,0.6010242 8.929647,0.6042222 8.886046,0.5989052 8.853618,0.5909302 8.818002,0.5882722 8.780247,0.6015634 8.763768,0.6100674 8.733998,0.6153834 8.693065,0.6180414 8.671259,0.6424952 8.619694,0.6557864 8.584077,0.6669489 8.54898,0.6696069 H 8.53513 L 8.5298135,0.6536593 V 0.6403681 l 0.00532,-0.0111625 0.00798,-0.005317 0.021795,-0.0132912 0.03031,0.002658 0.043062,-0.0138208 0.011162,-0.0159494 -0.019137,-0.0239242 -0.0085,-0.016479 -0.00266,-0.0106329 -0.019137,-0.0186077 -0.00532,-0.0186077 -0.021806,-0.0212659 -0.027112,0.010633 -0.0085,0.0159494 -0.015949,0.0217955 -0.0085,0.010633 -0.010633,0.0186077 -0.00797,0.0217955 0.00266,0.007975 -0.00532,0.0265824 -0.016479,0.0217955 -0.018607,0.0106329 -0.013831,0.0159495 -0.021795,0.0111625 -0.010633,0.007975 -0.019137,0.0159495 -0.02977,0.005316 -0.024453,0.0138312 -0.048918,0.0212659 h -0.0085 l -0.00797,-0.005317 V 0.7158681 l 0.00797,-0.0106329 0.024454,-0.0159495 0.02977,-0.008515 0.035627,-0.0132912 0.019137,-0.027112 0.018607,-0.0132912 0.024454,-0.0239242 0.016479,-0.0404031 0.010633,-0.0164791 0.016489,-0.0318989 0.029771,-0.0536944 0.027112,-0.005316 0.00797,-0.0111729 -0.016479,-0.0186077 -0.010633,-0.0212659 -0.0085,-0.0132912 -0.013832,-0.027112 -0.013291,-0.0186077 -0.00319,-0.0186077 -0.024454,0.007975 -0.024454,-0.002658 -0.021795,0.008504 -0.013291,0.007975 -0.019148,0.0186077 -0.010633,0.0218059 -0.00266,0.0292406 0.019148,0.007975 -0.00266,0.0132912 -0.00532,0.0297702 0.00266,0.007975 0.010633,0.0132912 0.00319,0.010633 v 0.007975 l -0.01382,0.0191372 -0.00266,0.0265824 -0.00532,0.0159495 -0.00797,0.0111625 -0.011173,0.0186076 -0.00266,0.0132912 -0.013292,0.007975 L 8.306512,0.6435557 8.293221,0.66747985 8.2714255,0.6892857 8.235809,0.71055165 8.211345,0.7243724 8.184233,0.74032185 8.167754,0.73766385 8.137984,0.7488264 8.110872,0.7568011 8.072587,0.7594591 8.0130465,0.7541426 7.988593,0.7408514 7.969445,0.73021845 7.9391455,0.72224375 7.9040585,0.7116108 7.879605,0.7062943 7.8604575,0.69566135 7.8577975,0.69300335 7.843977,0.68502865 7.8142065,0.66642095 7.7977275,0.655788 7.792411,0.65313 7.783907,0.650472 7.7674175,0.6424973 7.74881,0.63186435 7.7296725,0.61857315 7.721168,0.61325665 7.691398,0.5893325 7.6557715,0.56540835 7.5877265,0.50639745 7.554758,0.47449858 7.524988,0.43675365 7.489372,0.37827237 7.4675765,0.35646651 7.46172,0.34051707 7.451087,0.32190939 7.442587,0.30064349 7.42345,0.27884799 7.396338,0.24694909 7.366028,0.22834139 7.311805,0.19910079 7.268214,0.17517659 7.216108,0.15656889 7.175705,0.15125289 7.153909,0.14859489 7.064059,0.13796189 7.017269,0.12201249 7.003978,0.11722549 6.973678,0.10872149 6.927419,0.10074649 6.892327,0.08745469 6.865215,0.07150525 6.862025,0.068847 6.851392,0.06353052 6.8295965,0.05289756 6.82428,0.05023931 6.7992865,0.03960635 6.7859955,0.03163163 6.774833,0.04226459 6.756225,0.04811064 6.7285835,0.0454524 6.7041195,0.03747768 V 0.01834043 l 0.013831,-0.02126592 v -0.01063296 l -0.027652,-0.02392416 -0.027112,-0.02445374 -0.035616,-0.02392416 -0.013292,-0.0079747 -0.043601,-0.03189888 -0.024984,-0.0159494 -0.024453,-0.0132912 -0.016489,-0.0111625 -0.00266,5.295e-4 -0.015949,-0.016479 -0.019137,-0.010633 -0.013821,-0.0132912 -0.013821,-0.007975 -0.051576,-0.010633 h -0.024454 l -0.00797,0.005316 -0.011163,0.008504 -0.021795,-0.005316 -0.019138,-0.010633 v -0.008504 l 0.00266,-0.007975 0.0085,-0.010633 0.010633,-0.005316 0.032958,0.0132912 0.024454,-0.002658 0.00797,-0.007975 v -0.007975 l -0.073891,-0.0590108 -0.015949,-0.0159494 -0.01649,-0.0132912 -0.011163,-0.007975 -0.010633,-0.007975 -0.011163,-0.002658 -0.00797,-0.002658 -0.00266,0.005316 v 0.0212659 l -0.00266,0.0186077 -0.013821,0.0244537 -0.035087,0.0265824 -0.016489,0.008504 -0.024454,0.007975 -0.032428,0.002658 -0.048908,-0.005316 -0.04626,-0.0159494 -0.035616,-0.007975 -0.02977,-0.002658 -0.027122,0.003188 -0.032958,0.005316 h -0.040404 l -0.03031,-0.005316 -0.016479,-0.010633 -0.027112,-0.0239242 -0.00532,-0.005316 -0.00266,-0.007975 -0.0085,-0.0111625 -0.00797,-0.005316 -0.1116465,-0.066456 0.013291,-0.0350867 0.02977,-0.0159494 0.016479,-0.002658 0.019137,-0.016479 0.00904,-0.0425318 -0.045719,-1.065e-5 -0.034028,0.0186077 -0.021795,0.0138311 -0.016489,0.007975 H 5.587123 l -0.00266,-0.0106329 0.00266,-0.007975 v -0.005316 l -0.00213,-0.0117025 -1.2493729,0.0467892 -0.06007,0.002129 -0.013821,5.295e-4 -0.205754,0.005316 -0.2482755,0.006376 -0.2211635,0.007445 -0.2839021,0.008504 -0.6214985,0.0101034 -0.9835488,0.009034 -0.1621526,0.001599 -0.4380801,0.005846 -0.59331705,0.006916 -0.193522,0.002658 -0.58055537,0.016479 -0.0175486,0.80278849 -0.003188,0.17438464 -5.3165e-4,0.0308294 -0.0127617,0.58428311 -0.0101034,0.4960318 -0.002129,0.1759734 -0.003717,0.2488051 -0.00106,0.097825 v 0.00532 l -0.0265824,1.4131245 -0.002658,0.143545 -0.005856,0.3950082 -0.001059,0.020207 -0.00106,0.066985 -0.0223351,1.0579797 -0.004247,0.13557 -5.396e-4,0.03031 -0.022325,0.753871 -0.0388146,1.2919045 -0.007975,0.255191 -0.0249832,0.8027885 -0.0175486,0.229678 -0.003717,0.051037 -0.0244537,0.7113385 -0.0101035,0.3290925 -0.004787,0.1967082 -0.0292406,1.122307 -0.022855,0.938359 -0.006386,0.224891 -0.001589,0.04625 -0.009044,0.309955 -0.010633,0.329093 -0.0127616,0.272199 -0.004247,0.08347 -0.008505,0.280704 -0.0143604,0.46838 -0.003188,0.209471 -0.008504,0.494962 0.0744308,-0.01701 0.0845336,-0.03721 0.004777,-0.0027 0.0132912,-0.0101 0.0212659,-0.01808 0.0196774,-0.02817 0.0244537,-0.03456 0.0350866,-0.04998 0.0356263,-0.02498 0.006906,-0.0021 0.0244537,-0.0058 0.003198,5.3e-4 0.0255133,0.0069 0.0233946,0.01223 0.0191372,0.01223 0.0255234,0.01807 0.0244537,0.02712 0.0249832,0.02924 0.038285,0.05582 0.04359088,0.06433 0.0069157,0.009 0.0233941,0.03137 0.01382126,0.01063 0.0191372,0.01169 0.0132912,0.0069 0.03295792,0.008 0.0191473,0.0053 0.02711246,0.01063 0.0233941,0.01276 0.04996694,0.04891 0.027122,0.02552 0.0653869,0.03934 0.0356263,0.0069 0.0749608,-0.0053 0.0201962,-0.0074 0.0733717,-0.02498 0.0420023,-0.01914 0.0297702,-0.01382 0.0414723,-0.04626 0.009564,-0.01116 0.0388146,-0.01755 0.0542238,0.02021 0.06061,0.02233 0.005316,0.0011 0.0616691,-0.01382 0.0334981,-0.02074 0.008504,-0.0064 0.004787,-0.0048 0.0382744,-0.04573 0.044131,-0.05263 0.017538,-0.01223 0.0175486,-0.01063 0.0164789,-0.0037 0.0175487,-0.0037 0.002658,5.3e-4 0.0313688,0.0096 0.00797,0.0053 0.059541,0.05742 0.01542,0.03509 0.010103,0.05901 v 0.009 l 5.315e-4,0.03721 -0.00266,0.08295 v 0.01329 l 0.00797,0.03509 0.00372,0.0085 0.028711,0.05317 0.079747,0.04519 0.046789,0.0053 0.073362,0.0048 0.01489,0.0027 0.1100469,0.02924 0.078158,0.03934 0.039874,0.02764 0.040933,0.03722 0.0303,0.04306 0.039874,0.08347 0.00373,0.009 0.018078,0.08932 0.00372,0.01807 0.00319,0.06752 0.025523,0.07283 0.1286545,0.19618 0.040403,0.0622 0.056363,0.0973 0.011693,0.02021 0.024454,0.09197 -5.315e-4,0.0319 -0.00106,0.01755 -0.00797,0.185547 0.011693,0.06007 0.00266,0.01276 0.00479,0.0218 0.017008,0.0436 0.00585,0.008 0.026582,0.02977 0.057422,0.03934 0.00585,0.0032 0.1137748,0.03349 0.017009,0.0048 0.1058,0.01914 0.154178,0.05636 0.1940514,0.07123 0.1143043,0.0032 h 0.018608 l 0.012232,-0.0021 0.1270659,-0.03084 0.1143043,-0.01542 0.071232,-0.0218 0.043601,-0.0053 0.00372,-5.3e-4 0.040403,-0.0048 0.078159,0.02605 0.01542,0.01169 0.066986,0.04998 0.092509,0.0319 0.035616,0.008 0.086123,0.01968 0.00692,0.0016 0.02977,0.0074 0.00745,0.0032 0.039874,0.02181 0.010103,0.0074 0.00372,0.0043 0.038814,0.06433 0.00159,0.0032 0.00639,0.02658 0.00425,0.01915 0.01542,0.07123 0.00426,0.01436 0.019137,0.02658 0.062199,0.04625 0.068585,0.02286 0.063798,0.02074 0.026582,0.02233 0.024454,0.05369 0.0032,0.0101 0.00425,0.01435 0.017549,0.08188 0.011163,0.04785 0.00426,0.008 0.027112,0.04519 0.00425,0.0058 0.035627,0.02127 0.023395,0.0059 0.1031314,0.01754 0.065397,0.01063 0.059011,0.03722 0.048378,0.03031 0.1244077,0.04465 0.013291,0.0027 0.035627,-0.0021 0.039334,-0.02446 0.027652,-0.0303 0.00319,-0.0027 0.013291,-0.02977 0.00585,-0.01276 0.00319,-0.0303 0.00213,-0.02074 0.00532,-0.05316 0.013291,-0.04306 0.010103,-0.01861 0.015949,-0.02765 0.028181,-0.02871 0.046779,-0.01967 0.065397,-0.01489 0.071772,-0.01648 0.00425,-0.0011 0.122819,-0.03934 0.071232,-0.02339 0.077089,-0.0074 0.00957,5.4e-4 0.00692,0.0016 0.075489,0.02339 0.026582,0.01967 0.079747,0.06114 0.053165,0.06061 0.021795,0.01223 0.013292,0.0074 0.072302,0.01063 0.0032,5.3e-4 0.21106,0.0319 0.037216,0.0074 0.049447,0.01329 0.04465,0.01222 0.043072,0.02233 0.137159,0.09463 0.00426,0.0037 0.020736,0.04572 0.019667,0.08985 0.00903,0.04199 0.022336,0.03084 0.032428,0.02445 0.052636,0.01702 0.041462,-0.02021 0.043601,-0.04732 0.018078,-0.01967 0.027112,-0.02977 0.013291,-0.01595 0.040933,-0.02446 0.043602,-0.02658 h 0.032958 l 0.028181,0.0048 0.00212,5.3e-4 0.067525,0.03721 0.038804,0.02074 0.03084,0.0069 0.024984,0.0032 h 0.00532 l 0.00586,-5.3e-4 0.134501,-0.01808 0.05955,-0.0085 0.0085,-0.0021 0.012762,-0.0069 0.047848,-0.03614 0.029241,-0.03722 0.00585,-0.0085 0.032428,-0.0856 0.01435,-0.03774 0.04519,-0.07975 0.0032,-0.0037 0.047309,-0.03403 0.011702,-0.0053 0.073901,-0.03456 0.00532,-0.0027 0.108448,-0.05104 0.042532,-0.04147 0.00373,-0.0053 0.054754,-0.108988 0.029781,-0.02764 0.073361,-0.03509 0.00692,5.3e-4 0.083464,0.01435 0.079218,0.01329 0.039873,-0.01382 0.00903,-0.0037 0.019148,-0.01329 0.073891,-0.05423 0.01542,-0.01063 0.00957,-0.0053 0.071772,-0.03137 0.1477915,-0.04146 0.030311,0.0085 0.013291,0.0048 0.012222,0.0101 0.013291,0.01275 0.012761,0.01436 0.00532,0.0085 0.021795,0.05582 0.00213,0.03296 -0.015949,0.06487 -0.00159,0.0064 -0.010633,0.04306 -0.013291,0.104212 -5.4e-4,0.0074 0.011173,0.02978 0.00478,0.01116 0.018607,0.0319 0.044131,0.07709 0.00638,0.02924 0.00586,0.02977 0.00266,0.04785 5.3e-4,0.05104 0.00266,0.05582 0.00319,0.05635 0.00319,0.02658 0.00213,0.01649 0.00106,0.0048 0.036686,0.105271 0.0016,0.0032 0.043591,0.05742 0.032428,0.02605 0.035626,0.02977 0.035617,0.02127 0.00318,-0.0016 0.101013,0.05423 0.01595,0.0058 0.040943,0.01063 h 0.065386 l 0.094638,-0.0016 0.027641,-5.3e-4 0.073372,0.0074 0.019137,0.01329 0.00639,0.0042 0.032428,0.02712 0.038274,0.02392 0.035627,0.02392 0.010093,0.01169 0.038814,0.05848 0.00692,0.01435 0.041991,0.08613 0.042532,0.04678 0.02924,0.03881 0.00586,0.008 0.028171,0.03775 0.043062,0.03137 0.046259,0.02393 0.044121,0.02127 0.029781,0.01648 0.024983,0.02074 0.032428,0.06858 0.00904,0.05688 0.016479,0.107399 0.024983,0.06646 0.00479,0.01435 0.011692,0.01861 0.022336,0.02074 0.019667,0.01542 0.011703,0.0064 0.01435,0.0074 0.043591,0.01808 0.03137,0.0064 0.00692,0.0016 h 0.038274 l 0.049447,-0.0053 0.042532,-0.0069 0.055293,-0.01808 0.00371,-0.0011 0.046249,-0.01595 0.021266,-0.01116 0.00532,-0.0027 0.02712,-0.01436 0.02127,-0.01116 0.03296,-0.01063 0.02445,-0.008 0.02711,-0.0085 0.03456,-0.0085 0.06646,-0.01861 0.06114,-0.01808 0.02074,-0.0058 0.04094,-0.01968 0.0218,-0.0085 0.01276,-0.0053 0.01382,-0.0058 0.0058,-0.0032 0.01382,-0.0037 0.02074,-0.0053 0.0069,5.3e-4 0.01595,0.0021 0.01063,0.0027 0.01914,0.0053 0.01382,0.0027 0.02711,0.008 h 0.01382 l 0.02181,-0.0037 0.02977,-0.0032 0.01701,-0.0027 0.008,-0.0016 0.0319,-0.0085 0.03509,-0.009 0.02446,-0.0058 0.02977,-0.0064 0.0085,-0.0027 0.01435,-0.0085 0.02021,-0.009 0.02339,-0.01754 0.01648,-0.01595 0.01595,-0.02447 0.0011,-0.0032 0.0074,-0.02871 0.0032,-0.01222 0.0027,-0.01489 0.0048,-0.0319 0.0053,-0.02127 0.0053,-0.02445 0.009,-0.01701 0.01009,-0.02286 0.0074,-0.03775 0.0043,-0.02818 0.0042,-0.04519 0.0043,-0.03509 0.0021,-0.02977 0.0042,-0.03722 0.0048,-0.02818 0.0096,-0.02605 0.0101,-0.02711 0.01063,-0.03987 0.0021,-0.01648 0.0027,-0.02658 0.0027,-0.01595 -0.0027,-0.0404 v -0.04945 l 5.4e-4,-0.01222 0.0027,-0.02552 0.0074,-0.02233 0.0027,-0.0085 0.0069,-0.01382 0.01489,-0.01808 0.0016,-0.0016 0.01276,-0.01063 0.01861,-0.01648 0.02924,-0.02499 0.02179,-0.01861 0.0064,-0.0037 0.01435,-0.0058 0.0218,-0.0032 0.03031,-0.0011 0.008,0.0016 0.0202,0.0037 0.02977,0.0085 0.03244,0.0101 0.03615,0.01063 0.03829,0.0058 0.01329,0.0016 0.03828,-0.0053 0.0037,-5.3e-4 0.02924,-0.0021 0.01436,-0.0048 0.01754,-0.008 0.01329,-0.009 0.009,-0.008 0.01329,-0.0101 0.0101,-0.009 0.02127,-0.02445 0.01275,-0.02445 0.0101,-0.03669 0.0021,-0.01542 0.0037,-0.02445 -0.0032,-0.02551 -0.0032,-0.02446 -0.0101,-0.05582 -0.01754,-0.03933 -0.0016,-0.0048 -0.02232,-0.06167 -0.01808,-0.06114 -0.01223,-0.04785 -0.0021,-0.01063 -0.0037,-0.02446 v -0.0058 l 0.0011,-0.01754 0.0048,-0.02712 0.01276,-0.03243 0.0101,-0.02445 0.0048,-0.02392 0.0011,-0.04253 -0.0074,-0.02232 -0.0042,-0.0101 -0.008,-0.02021 -0.0096,-0.02445 -0.01808,-0.05051 -0.0064,-0.02924 -0.0011,-0.0319 -5.3e-4,-0.02764 -5.3e-4,-0.02074 -0.0058,-0.02127 -0.0101,-0.0218 -0.01914,-0.01968 -0.01382,-0.01595 -0.01649,-0.0074 -0.01329,-0.01063 -0.01648,-0.01063 -0.0048,-0.0042 -0.0074,-0.01063 -0.0059,-0.01329 -0.0042,-0.02392 0.0027,-0.02977 0.0016,-0.02658 0.0053,-0.01861 0.0069,-0.01755 0.02392,-0.03722 0.01914,-0.01648 0.02711,-0.02658 0.01117,-0.009 0.009,-0.0058 0.01861,-0.01435 0.02127,-0.0085 0.0032,-0.0016 0.02127,-0.009 0.02977,-0.01329 0.0027,-0.0011 0.02499,-0.0101 0.03403,-0.02232 0.02127,-0.01914 0.02338,-0.02552 0.01915,-0.02392 0.01861,-0.03243 0.01116,-0.03509 0.0074,-0.04253 0.0042,-0.0436 -0.0011,-0.02924 -0.0032,-0.02924 -0.0085,-0.02924 -0.0058,-0.02127 -0.0016,-0.008 -0.0037,-0.03509 0.0021,-0.02392 0.0011,-0.0101 0.0021,-0.0085 0.01116,-0.02658 0.01329,-0.0218 0.02127,-0.02021 0.01702,-0.01754 0.01754,-0.0234 0.01542,-0.03243 0.0037,-0.008 0.02179,-0.04094 0.01754,-0.03403 0.01063,-0.0218 0.01595,-0.03774 0.0048,-0.0096 0.0037,-0.009 0.0058,-0.01914 0.0027,-0.0069 0.0074,-0.01382 0.0032,-0.0053 0.0101,-0.02445 0.0027,-0.0069 0.0074,-0.0202 0.0021,-0.008 0.0043,-0.01063 0.0085,-0.02445 0.01063,-0.02074 0.01116,-0.01436 0.0096,-0.01116 0.0058,-0.0042 0.02074,-0.01276 0.02764,-0.01755 0.02605,-0.01382 0.02445,-0.01116 0.0021,-0.0016 0.03403,-0.02498 0.0202,-0.02287 0.0101,-0.01169 0.0048,-0.008 0.0101,-0.02445 0.0021,-0.02552 v -0.02924 l 0.0053,-0.02977 0.01063,-0.02392 0.01648,-0.02445 0.01861,-0.01063 0.01488,-0.009 0.0048,-0.0021 0.0101,-0.0011 0.02445,-0.0027 0.04466,0.0037 0.0043,5.4e-4 0.03083,0.01222 0.02499,0.01542 0.02445,0.01967 0.01488,0.02446 0.01276,0.03987 0.0085,0.03456 0.01383,0.02764 0.0048,0.0069 0.01276,0.01541 0.0096,0.0059 0.01063,0.0053 0.0069,0.0021 0.01436,0.0011 0.02445,-5.3e-4 0.01914,-0.0059 0.0043,-0.0016 0.01488,-0.0043 0.01276,-0.0064 0.01063,-0.0027 h 0.0064 l 0.01595,-0.0011 0.0064,0.0016 0.01276,0.0043 0.0202,0.01009 0.01117,0.01329 0.01382,0.02021 0.01169,0.02658 0.0069,0.01489 0.0058,0.01063 0.01382,0.02658 0.01648,0.02658 0.01383,0.02393 0.0053,0.01595 0.0053,0.01648 0.0085,0.02711 0.0027,0.0096 0.02924,0.04997 0.01701,0.03616 0.009,0.02445 0.0053,0.01808 -0.0027,0.01861 -0.008,0.01914 -0.01649,0.02392 -0.01914,0.02392 -0.02285,0.02658 -0.01861,0.01914 -0.01542,0.01649 -0.0058,0.0058 -0.0074,0.01648 -0.0101,0.01914 -0.0037,0.01436 v 0.008 l 0.0016,0.0096 0.0085,0.01595 0.01117,0.01489 0.0058,0.0085 0.03669,0.03084 0.01116,0.008 0.02924,0.01861 0.04359,0.01914 0.02711,0.0027 0.01595,0.0016 0.02712,-0.01169 0.0021,-0.0016 0.02712,-0.02338 0.009,-0.0064 0.01755,-0.01329 0.01541,-0.01382 0.0085,-0.008 0.02127,-0.02074 0.0021,-0.0016 0.01968,-0.01968 0.0101,-0.01276 0.0074,-0.01116 0.01808,-0.02977 0.008,-0.02126 0.0053,-0.03243 0.0027,-0.02924 v -0.02499 l 0.0027,-0.02338 5.3e-4,-0.0085 0.0032,-0.01648 0.01063,-0.02445 0.009,-0.01595 0.0064,-0.0096 0.01595,-0.02127 0.01808,-0.01595 0.02021,-0.01169 h 0.0048 l 0.01329,-5.3e-4 0.02551,0.0042 0.01276,0.0059 0.0037,0.0021 0.01436,0.008 0.01542,0.01542 0.02233,0.02924 0.0053,0.0043 0.01382,0.009 0.0218,0.01861 0.02181,0.01595 0.0069,0.0043 0.01436,0.0064 0.02233,0.0074 0.0053,0.0016 0.01116,0.0016 h 0.02179 l 0.0027,-5.3e-4 0.008,-0.0042 0.0085,-0.0048 0.0053,-0.0037 0.01382,-0.01648 0.0042,-0.0096 0.0021,-0.0096 -5.3e-4,-0.01648 -5.3e-4,-0.0069 -0.0058,-0.01914 -0.01063,-0.01329 -0.01489,-0.02074 -0.01116,-0.01542 -0.01968,-0.02127 -0.02073,-0.03083 -0.008,-0.0218 -0.0053,-0.02605 0.0027,-0.04573 0.01009,-0.03243 0.01383,-0.02604 0.0032,-0.0059 0.01063,-0.02073 0.0085,-0.02074 0.01542,-0.02445 0.0101,-0.02446 0.0027,-0.01488 0.0011,-0.01223 0.0027,-0.02658 v -0.0064 l -5.3e-4,-0.02074 -0.0064,-0.0319 -0.0069,-0.02445 -0.01436,-0.02074 -0.02498,-0.0303 -0.02392,-0.02552 -0.0096,-0.0085 -0.01488,-0.01329 -0.03031,-0.02658 -0.02977,-0.02392 -0.02498,-0.02924 -0.01914,-0.03987 -0.0032,-0.0101 -0.01169,-0.03243 -0.0043,-0.01223 -0.0048,-0.01169 -0.0064,-0.01915 v -0.02392 l 0.0021,-0.01861 0.0016,-0.0027 0.0085,-0.01595 0.01063,-0.0058 h 0.01382 l 0.01489,0.0027 0.01914,0.008 0.0096,0.0032 0.01223,0.0048 0.0303,0.008 0.06274,-0.0032 0.03243,-0.01116 0.02871,-0.01648 0.009,-0.0064 0.01383,-0.01169 0.01967,-0.02287 0.0032,-0.0053 0.01223,-0.02286 0.01276,-0.0319 0.0042,-0.01968 0.0021,-0.01276 0.0027,-0.02127 v -0.01914 l -0.0016,-0.02924 v -0.01542 l -5.3e-4,-0.01116 -0.0011,-0.03721 -0.0011,-0.03243 -5.3e-4,-0.0096 -0.0016,-0.01435 -0.0032,-0.03987 -0.01063,-0.0404 -0.01648,-0.04572 -0.01701,-0.04147 -0.008,-0.02764 -0.0016,-0.01223 v -0.008 l 0.0016,-0.02392 v -0.01382 l 0.01116,-0.01702 0.01223,-0.01541 0.01329,-0.01117 0.01595,-0.01382 0.01275,-0.01116 0.01383,-0.01914 0.0074,-0.02127 0.0059,-0.01914 0.01169,-0.02446 0.0074,-0.01648 0.01329,-0.01914 0.01329,-0.01382 0.01595,-0.0085 0.02711,-0.008 0.05529,-0.0053 0.01595,-0.0059 0.01329,-0.0058 0.0101,-0.01169 0.0021,-0.009 0.0016,-0.01329 0.0027,-0.02233 v -0.02339 l 0.0016,-0.02764 -0.0032,-0.01861 -0.0069,-0.02339 -0.0053,-0.0218 -0.0027,-0.02074 5.3e-4,-0.008 0.0032,-0.01382 0.0074,-0.01914 0.01861,-0.02978 0.02392,-0.02338 0.01063,-0.0101 0.01063,-0.008 0.01755,-0.0096 0.01595,-0.0074 0.04891,-0.01329 0.03616,-0.0053 0.04572,0.0021 0.01435,0.0016 0.0074,0.0011 0.01648,0.0032 0.02179,0.0074 0.02181,0.0048 h 0.0043 l 0.01755,-0.0021 0.01435,-0.0037 0.0101,-0.0021 0.01755,-0.0027 0.0085,0.0016 0.0218,0.0032 0.02871,0.0053 0.02074,0.0096 0.03349,0.01755 0.01382,0.0053 0.02446,0.0069 0.0069,0.0016 0.01223,0.0016 0.0085,-0.0021 0.01063,-0.0048 0.01063,-0.01435 0.0021,-0.01276 0.0016,-0.01169 0.0016,-0.01595 5.3e-4,-0.03403 0.0021,-0.03297 v -0.03987 l 0.0027,-0.03775 0.0037,-0.04253 0.0074,-0.03775 0.0043,-0.03721 0.0042,-0.02977 -5.3e-4,-0.02127 0.0021,-0.02179 0.0016,-0.008 0.0058,-0.02658 0.0037,-0.0101 0.0058,-0.01436 0.01329,-0.01914 0.01808,-0.02232 0.01861,-0.01914 0.0218,-0.01436 0.02499,-0.01063 0.01595,-0.0069 0.01382,-0.0064 0.02339,-0.01063 0.02392,-0.01116 0.05051,-0.0335 0.01222,-0.0074 0.0069,-0.0048 0.02445,-0.02127 0.02711,-0.02711 0.02233,-0.03031 0.02339,-0.03562 0.008,-0.01329 0.01009,-0.01702 0.01063,-0.01488 0.01489,-0.01755 0.01648,-0.01967 0.02711,-0.01808 0.02446,-0.01063 0.02392,-0.0027 0.03615,0.0021 0.03297,0.01063 0.0085,0.0053 0.02393,0.01595 0.01914,0.01595 0.01914,0.01861 0.01914,0.02658 0.01329,0.01914 0.0032,0.0058 0.01754,0.03987 0.01223,0.03669 0.0101,0.02924 0.0016,0.0053 0.01116,0.0404 0.01063,0.03084 0.01436,0.0303 0.02233,0.02765 0.02552,0.02338 0.03562,0.01276 0.01968,0.0048 0.0027,-5.3e-4 0.01595,-5.3e-4 0.01435,-0.0011 0.03296,-0.01116 0.01276,-0.0043 0.02392,-0.01009 0.04519,-0.03616 0.05104,-0.03084 0.03456,-0.02233 0.01755,-0.01223 0.01595,-0.01063 0.01382,-0.01329 0.0117,-0.01009 0.01009,-0.009 0.0117,-0.008 0.0074,-0.0053 0.02711,-0.01542 0.01914,-0.009 0.01276,-0.0064 0.008,-0.0048 0.02127,-0.01648 0.009,-0.0053 0.0096,-0.0059 0.01914,-0.0085 0.01967,-0.0032 0.0043,-0.0011 0.01914,-0.008 0.02924,-0.01063 0.01914,-0.0064 0.01383,-0.0037 0.04093,-0.0011 0.03296,0.0096 0.0074,0.0021 0.01116,0.0016 0.0436,0.0027 0.01914,-0.01116 0.01116,-0.01063 0.0101,-0.02658 0.0058,-0.02711 0.0053,-0.0234 0.0032,-0.0101 0.0101,-0.03349 0.008,-0.01595 0.008,-0.0085 0.01755,-0.01808 0.0042,-0.0043 0.0117,-0.01276 0.02127,-0.02179 0.02977,-0.04466 0.0027,-0.0032 0.01223,-0.01222 0.0085,-0.008 0.01222,-0.009 0.02712,-0.01861 0.02977,-0.01116 0.03243,-0.01063 0.02764,-0.0032 0.01117,-0.0011 0.02977,-0.0042 0.0218,-0.0053 0.02127,-0.0085 0.01755,-0.01383 0.01541,-0.02338 0.02181,-0.03987 0.0069,-0.01383 0.01542,-0.03136 0.0043,-0.0064 0.03243,-0.05635 0.03083,-0.06274 0.0016,-0.0027 0.03509,-0.04678 0.01542,-0.02074 0.01489,-0.01701 0.02817,-0.0335 0.01489,-0.01648 0.04253,-0.03881 0.02605,-0.02764 0.0053,-0.0053 0.02127,-0.02234 0.02338,-0.03562 0.009,-0.01116 0.01648,-0.01914 0.0218,-0.01861 0.01116,-0.0085 0.04466,-0.03933 0.02127,-0.02712 0.02871,-0.03136 0.01648,-0.01755 0.05955,-0.05901 0.04625,-0.04838 0.01755,-0.01702 0.0287,-0.02605 0.03829,-0.03456 0.02127,-0.01914 0.03615,-0.0303 0.02765,-0.02658 0.008,-0.008 0.01595,-0.01648 0.0101,-0.0074 0.01914,-0.01382 0.0218,-0.01808 0.02445,-0.0117 0.01861,-0.0058 h 0.008 l 0.02127,-5.3e-4 0.03031,-0.0011 0.0218,0.0021 0.01914,0.0027 0.02445,0.0011 0.0218,-0.0032 0.02658,-0.01436 0.02392,-0.02498 0.01329,-0.0218 0.01276,-0.02552 0.0053,-0.01382 0.01116,-0.04306 0.0101,-0.05371 0.0027,-0.02127 0.0027,-0.0319 0.0027,-0.0287 -5.3e-4,-0.0048 -0.0021,-0.02552 -0.0027,-0.02658 -0.0027,-0.02871 0.0027,-0.02392 0.0021,-0.02233 0.0016,-0.0101 0.0027,-0.01063 0.0064,-0.01701 0.01382,-0.01329 0.01382,-0.01116 0.01595,-0.008 0.01915,-0.0064 0.02764,-0.01222 0.02127,-0.01117 0.0037,-0.0042 0.01276,-0.01436 0.01329,-0.01914 0.0053,-0.02658 -0.0032,-0.0202 -0.0085,-0.01489 -0.0064,-0.01223 -0.0048,-0.009 -0.01808,-0.02924 -0.01648,-0.02287 -0.0085,-0.01222 -0.0085,-0.0117 -0.01329,-0.01754 -0.01382,-0.01542 -0.0027,-0.0032 -0.01648,-0.01808 -0.01968,-0.01967 -0.02126,-0.02286 -0.01169,-0.02605 -0.0096,-0.02074 -0.0032,-0.03243 0.0048,-0.01967 0.01329,-0.02711 0.0027,-0.0027 0.01489,-0.01595 0.02127,-0.02234 0.03456,-0.02605 0.03827,-0.03243 0.01595,-0.01276 0.0096,-0.009 0.02073,-0.02498 0.01383,-0.02871 0.0074,-0.02658 0.0016,-0.01436 0.0011,-0.01541 0.0027,-0.02765 -0.0027,-0.01648 -0.0058,-0.0335 -0.0032,-0.01541 -0.0021,-0.01117 -0.0058,-0.02658 -0.0058,-0.02498 5.3e-4,-0.02605 0.0021,-0.0096 0.0037,-0.01276 0.01116,-0.01063 0.01223,-0.0101 0.0058,-0.0027 0.02765,-0.01701 0.01595,-0.0096 0.03509,-0.02179 0.0218,-0.0218 0.01382,-0.01329 0.01063,-0.01329 0.01116,-0.02074 0.0016,-0.01968 -0.0032,-0.02127 -0.0016,-0.0096 -0.0027,-0.009 -0.0085,-0.01914 -0.01648,-0.02285 -0.01648,-0.01968 -0.008,-0.01488 -0.0043,-0.0101 -0.01435,-0.02924 -0.0096,-0.03084 -0.0053,-0.0218 0.0032,-0.02179 0.01116,-0.02127 0.0032,-0.0021 0.01595,-0.0069 0.02977,-0.0069 0.01914,0.0027 0.01914,0.0048 0.01595,0.01009 0.01755,0.0101 0.0069,0.0043 0.02446,0.01329 0.02392,0.0101 h 0.01329 l 0.01648,-0.0032 0.0069,-0.0048 0.0069,-0.0059 0.0069,-0.01967 0.0016,-0.02658 -5.3e-4,-0.0043 -0.0053,-0.01967 -0.009,-0.02392 -0.01542,-0.03669 -0.0117,-0.036686 -0.0074,-0.02977 -0.0016,-0.010633 -5.3e-4,-0.01382 0.0074,-0.026583 0.01541,-0.024983 0.02924,-0.027123 0.02234,-0.015409 0.01488,-0.018607 0.01063,-0.011173 0.0101,-0.023924 0.0048,-0.024454 5.3e-4,-0.010633 V 9.711221 l -0.0027,-0.032428 -0.0058,-0.034557 -0.0016,-0.012222 -0.0042,-0.028181 -0.0058,-0.047849 V 9.518239 l 0.0016,-0.011703 0.0011,-0.00956 0.0032,-0.02977 0.0011,-0.00426 0.0064,-0.022325 0.0027,-0.00798 0.01063,-0.032439 0.0021,-0.00585 0.0027,-0.00903 0.0037,-0.011703 0.0027,-0.017008 0.0021,-0.016479 5.3e-4,-0.00532 V 9.316874 l -5.3e-4,-0.026582 -0.0027,-0.021266 -0.0059,-0.019666 -0.0085,-0.021795 -0.0101,-0.020207 -0.008,-0.021795 -0.0032,-0.021266 0.0032,-0.01542 0.0021,-0.0085 0.0032,-0.0085 0.009,-0.019147 0.01222,-0.017538 0.0021,-0.00266 0.01648,-0.019137 0.01649,-0.01595 0.02392,-0.021806 0.0048,-0.00424 0.0319,-0.031899 0.0101,-0.017549 0.0053,-0.02924 -5.3e-4,-0.040403 V 8.877221 l -0.01116,-0.031899 -0.0032,-0.037216 0.0021,-0.019137 0.0016,-0.011703 0.0032,-0.024983 0.0037,-0.024454 0.0048,-0.026582 0.0043,-0.018078 0.0043,-0.00904 0.0053,-0.024454 0.02445,-0.04519 0.02498,-0.048908 0.02339,-0.035626 0.01542,-0.021796 0.01595,-0.027112 0.01542,-0.022325 0.01541,-0.021806 0.0074,-0.024453 0.0074,-0.02977 0.0043,-0.021266 0.0027,-0.032428 5.3e-4,-0.00798 0.0032,-0.024453 0.0101,-0.035098 0.0048,-0.019137 0.0048,-0.018608 0.0074,-0.026582 0.0048,-0.016479 0.0021,-0.00372 0.01329,-0.023924 0.01329,-0.021806 0.0319,-0.027641 0.0319,-0.014351 0.02392,-0.019148 0.02127,-0.01488 0.02127,-0.020736 0.0042,-0.00585 0.0096,-0.01489 0.0053,-0.027641 V 7.948948 l -0.0032,-0.024994 -0.0016,-0.00797 -0.0037,-0.017538 0.0027,-0.011702 0.0037,-0.013821 0.0101,-0.024453 0.01861,-0.036157 0.0032,-0.00638 0.01436,-0.028181 0.0064,-0.012221 0.0053,-0.012233 0.0085,-0.034557 0.0048,-0.02977 -0.0032,-0.028182 -0.0021,-0.017009 -0.0058,-0.010633 -0.008,-0.021796 -0.0085,-0.015949 -0.01063,-0.021266 -0.01117,-0.018078 -0.0053,-0.022336 -0.0027,-0.021266 0.0037,-0.03083 0.0074,-0.02977 0.0074,-0.024994 0.0021,-0.01542 -0.0027,-0.019138 -5.3e-4,-0.00479 -0.0032,-0.015949 -0.0101,-0.022325 -0.01116,-0.010103 -0.0016,-0.00213 -0.01754,-0.011163 -0.0021,-0.00159 -0.01382,-0.00744 -0.02181,-0.01542 -0.01648,-0.010633 -0.0085,-0.013291 -0.0011,-0.00585 V 7.26471 l 0.0021,-0.00532 0.0027,-0.00532 0.01329,-0.01382 0.02127,-0.017009 0.01861,-0.016489 0.0069,-0.00744 0.0069,-0.00797 0.0021,-0.00904 0.0011,-0.00638 0.0021,-0.016479 -0.0032,-0.02978 -0.0058,-0.04519 5.3e-4,-0.011692 0.0011,-0.013821 0.0016,-0.035087 0.0027,-0.01489 0.0021,-0.010633 0.01382,-0.037216 0.01595,-0.035086 0.01595,-0.037216 0.01383,-0.040403 0.0053,-0.032969 -5.4e-4,-0.031369 -0.0021,-0.00477 -0.0059,-0.013831 -0.0032,-0.021266 -0.01063,-0.024453 -0.01116,-0.021266 -0.02179,-0.026582 -0.01276,-0.018607 -0.01382,-0.022855 -0.02287,-0.038814 -0.01329,-0.048378 -0.0085,-0.023924 -0.0085,-0.026582 -0.0037,-0.021266 -0.0021,-0.014361 -0.0027,-0.012221 -0.0085,-0.015949 -0.01329,-0.023395 -0.0042,-0.00532 -0.0074,-0.010633 -0.01063,-0.017008 -0.01276,-0.024464 -0.0085,-0.023925 -0.01435,-0.026582 -0.01702,-0.021266 -0.05582,-0.048907 -0.02074,-0.022325 -0.01116,-0.03031 -0.0021,-0.018078 0.0016,-0.015949 0.0016,-0.011692 0.01009,-0.020737 0.0021,-0.00266 0.0085,-0.011692 0.02392,-0.022335 0.01649,-0.017538 0.01488,-0.018079 0.02074,-0.024983 0.01063,-0.018608 0.0064,-0.00797 0.0096,-0.011703 0.02232,-0.020196 0.0117,-0.00904 0.0218,-0.01542 0.02021,-0.00903 0.02498,-0.010103 0.01648,-0.00797 0.02711,-0.0085 0.01915,0.00266 0.01914,0.00479 0.0218,0.019137 0.01382,0.012761 0.01914,0.016479 0.01808,0.00532 h 0.01436 l 0.01116,-0.00638 0.01222,-0.00797 0.02127,-0.013831 0.0234,-0.023384 0.0218,-0.01542 0.02658,-0.020207 0.0351,-0.01435 0.04572,-0.011703 0.04306,-0.022855 0.01223,-0.00639 -5.4e-4,-0.0303 -0.0027,-0.1392875 -5.3e-4,-0.042002 -0.01488,-0.7209124 -0.0085,-0.3344086 -0.0074,-0.2737987 -0.0021,-0.088792 -0.0096,-0.3795884 -0.02392,-0.8735018 -0.0011,-0.037745 -0.0011,-0.024994 -0.0037,-0.1275955 -0.0085,-0.3264236 -0.02074,-0.7400602 -0.02498,-0.88732255 -0.0021,-0.0536944 -0.0021,-0.06007 -0.0027,-0.0898506 -0.0011,-0.0159494 v -0.037745 l -0.01755,-0.76664262 -0.0069,-0.26050753 -0.0064,-0.23019755 -0.01808,-0.60927715 -0.008,-0.227539 z m -10.1358695,1.60398846 -0.03031,0.005316 5.4e-4,0.0212659 -0.021806,0.027112 -0.00266,0.0318989 0.010633,0.005846 0.00586,-5.295e-4 0.021795,-0.005316 0.021266,-0.005316 0.0085,0.007975 0.00797,0.0159494 0.011163,0.007975 0.019137,-0.0159494 v -0.0132912 l -0.00585,-0.0510361 -0.013821,-0.0212659 z m 0.1557665,0.15736573 -0.016479,0.008504 -0.024453,0.007975 -0.032958,0.005316 -0.070184,0.0324284 -0.021795,0.0324285 -0.016479,0.0239242 0.024454,0.0186077 0.019137,0.002658 0.00585,0.005316 0.00532,0.007975 0.00266,0.0244641 0.016489,-0.005316 0.00797,-0.0297806 0.00266,-0.005316 -0.00266,-0.0324285 0.018607,-0.0239242 0.0303,-0.005316 0.035087,-0.008504 0.035627,-0.0212659 0.010633,-0.0217955 -0.01649,-0.0132912 z M 8.652105,-0.1321109 8.638813,-0.1294529 H 8.627651 l -0.02977,0.002658 -0.019137,0.010633 -0.00797,0.02179549 -0.010633,0.0132912 -0.030311,0.01063296 -0.010633,5.295e-4 -0.016479,-0.0026583 -0.00266,-0.02445373 -0.019137,-0.0265824 -0.00532,0.02392416 -0.019137,0.02977021 -0.021806,0.01063296 -0.00532,0.01594945 0.0032,0.04571965 0.00797,0.01594944 -0.00797,0.01913725 -0.00532,0.04253184 0.024453,0.01383114 0.054224,-0.05157607 0.02977,-0.03721536 0.032968,-0.00318781 0.00798,-0.01063296 0.00797,-0.00797472 0.029771,-0.03242846 0.016479,-0.02392416 0.01595,-0.02445374 z m 0.360461,0.25306237 -0.027112,0.0111625 -0.024464,0.010633 -0.019137,0.0297702 0.00266,0.0292406 -0.018607,0.0217955 -0.019138,0.0132912 0.00266,0.0159494 0.00532,0.0132912 0.019137,0.0132912 0.027112,0.002658 0.021806,-0.002658 0.019137,0.0132912 0.021795,0.0212659 0.038274,0.0271223 0.024464,-0.003198 0.027112,-0.0239242 0.021795,-0.0191373 0.00797,-0.0186077 0.019138,-0.0186077 -0.00532,-0.016479 -0.011162,-0.0212659 0.016479,-0.0265824 0.00797,-0.0324285 0.00798,-0.0318989 -0.00798,0.005316 -0.011162,0.007975 -0.00532,0.007975 -0.021795,0.005316 -0.00797,0.0132912 -0.00266,0.016479 -0.024453,0.005316 -0.01649,-0.0132912 -0.024454,-0.0132912 -0.00266,-0.0297702 -0.011163,-0.005316 z" id="path19336"/>
    </clipPath>
  </defs>
  <!-- 8*tan(arctan(16/8)/2) v  -->
  <g id="g19314" clip-path="url(#clipPath19334)" transform="translate(0.67143807,2.09762)">
    <path id="path17078" style="color:#000000;fill:#ffffff;stroke-width:80;-inkscape-stroke:none" d="M 0,0 V 320 L 520,260 400,160 520,60 Z" transform="scale(0.05)"/>
    <path id="path17080" style="color:#000000;fill:#c1133d;stroke-width:20;-inkscape-stroke:none" d="M -168.97822,0 0,320 520,638.02345 477.56836,224.64062 40,275.11719 V 44.882812 L 477.56836,95.359375 520,-107.23618 Z" transform="scale(0.05)" sodipodi:nodetypes="ccccccccc"/>
    <path id="path17072" style="color:#000000;fill:#c1133d;fill-opacity:1;stroke-width:40;-inkscape-stroke:none" d="m 0,140 v 20 20 h 424 l -24,-20 24,-20 z" transform="scale(0.05)"/>
    <path id="path14888" style="fill:#001c5a;fill-opacity:1;stroke-width:20" d="M -320,-160 -640,0 -320,160 0,320 320,160 0,0 Z" transform="scale(0.05)"/>
    <g transform="translate(4.944272,8)" id="g14916">
      <circle r="3" fill="#ffffff" id="circle14890" cx="0" cy="0"/>
      <circle r="2" fill="#c1133d" id="circle14892" cx="0" cy="0"/>
      <use xlink:href="#s" x="4" id="use14894" y="0" width="100%" height="100%"/>
      <g id="s3">
        <use xlink:href="#s" id="use14896" x="0" y="0" width="100%" height="100%"/>
        <!--                   +/- 2*arcsin(0.5/(ri+1))  v  -->
        <use xlink:href="#s" x="2" transform="rotate(-9.650225)" id="use14898" y="0" width="100%" height="100%"/>
        <use xlink:href="#s" x="2" transform="rotate(9.650225)" id="use14900" y="0" width="100%" height="100%"/>
      </g>
      <g id="s6">
        <!--                          arctan(16/8)  v  -->
        <use xlink:href="#s" transform="rotate(63.434949)" id="use14903" x="0" y="0" width="100%" height="100%"/>
        <!--                       (above+below)/2  v  -->
        <use xlink:href="#s" transform="rotate(92.576212)" id="use14905" x="0" y="0" width="100%" height="100%"/>
        <!--                     90+arctan(16/8)/2  v  -->
        <use xlink:href="#s3" transform="rotate(121.71747)" id="use14907" x="0" y="0" width="100%" height="100%"/>
        <!--                         (above+180)/2  v  -->
        <use xlink:href="#s" transform="rotate(150.85874)" id="use14909" x="0" y="0" width="100%" height="100%"/>
      </g>
      <use xlink:href="#s" transform="scale(-1)" id="use14912" x="0" y="0" width="100%" height="100%"/>
      <use xlink:href="#s6" transform="scale(1,-1)" id="use14914" x="0" y="0" width="100%" height="100%"/>
    </g>
  </g>
</svg>