<svg width="800" height="664.8" xmlns="http://www.w3.org/2000/svg"><g transform="translate(0, 0)" id="single_state_map"><path d="M379.53941724285505,48.43988159158016L379.96577702598734,49.00007985805132L380.1955738711222,51.31956795929818L379.1639024971573,51.62414527722103L376.46755323576144,51.198191499174754L376.4023636486654,50.84585049983707L376.8096920490716,49.92747125385904L377.80230648087854,48.56509117587575L378.55660255289877,48.23417734803934ZM380.98068942113605,54.07703836512883L383.40037350680177,53.44878697615877L383.90953400730905,54.045464890305084L382.7957720421873,54.812525110104616L381.236618911209,56.218518820041936L380.72561208252773,57.67245791410187L380.6849928626816,58.24497271661494L379.4979458715461,58.49709129977964L377.6996222293146,55.80071232056707L379.6365625098988,54.42605297433056ZM377.94276944740704,60.61992915933388L380.23562498999127,60.19143682485719L380.7196470222716,59.697340310662184L381.97600233258345,59.37566306588633L382.43957272969783,59.619203175660914L382.2792262289822,60.03668923426903L381.8112530492981,60.8539397145496L377.6189518905994,65.50964894233857L376.5323167471215,66.34002504389173L375.47607500590493,66.5315546083284L375.2626110638521,62.98055035938614L376.61327113632433,61.05848142660852ZM395.6281789326167,69.59657028072888L396.9184782762968,69.75974524187859L398.47692128105336,68.30857057088997L398.8146573117938,68.49550990162152L398.4032101793073,72.93543058771684L397.64138676934635,74.33402859743273L397.25635633228194,74.590373454781L395.36983501339273,74.67752948529142L391.9896342011107,72.8237637457496L390.5780452988711,71.72546234958372L390.58642478827824,71.27361655024833L392.9873615417091,68.1833728186366L394.61951564821175,68.18717246574852L395.16943739380804,68.54338414951417ZM481.8436092557731,561.4916070145482L481.6021663406118,562.6610551342037L480.79262244859274,564.2866353137724L479.5854078727789,566.1309649525683L479.3296204079488,567.08051235925L479.37237000645655,568.0117315997732L479.21600021257836,568.5047029096331L477.89516544139224,570.6041853687457L476.7731660121044,572.6303196453437L475.93521707124455,573.4333842782162L474.74206299460457,574.8021297321548L474.54322765270626,575.9700115446058L474.4438099817562,577.4662063402257L474.88408823881946,578.633665717196L475.19356124596015,579.8623127487117L475.3020685325391,580.8336550570766L474.9623441483818,583.3188656884049L474.50062007944325,585.3090983520278L474.1029493956448,585.9472794759449L472.1283724253426,588.1985318349689L471.51368716838624,588.598677139018L469.58498435196634,589.5212430642332L467.9241411461335,589.9293677903452L466.77260046604715,591.1048192611015L465.3509277714711,592.2012524148449L464.61182840058245,592.926750119509L464.21770834788913,593.4754480415368L463.6074258735043,595.0230121082113L463.6142430852251,596.3670730450303L463.7660680712888,597.4730815302619L464.3107348828489,598.4547650976237L465.65614002128495,599.257508179292L466.45204948985884,599.907935973938L466.8291265132466,600.3900438893479L467.29440121329026,601.3523849128615L467.6264562342585,603.4026767839941L468.1377471134292,604.0945932591467L468.33658245532934,604.6954382268559L468.57802537049247,606.8072790763836L468.8622178841615,608.0086906839788L469.1604708970117,609.3009944680016L469.10366079932464,609.9015990181069L468.7912052620559,611.048130738167L468.0668765165665,613.1953311444886L467.96745884561824,614.4687448197365L468.4219396271001,615.8695561380564L468.6491800178428,616.9428031156622L468.72019263994844,618.2524084372662L469.64335672733796,620.1983842747832L469.97001478902894,621.3076423038847L470.32507789956253,623.0531686513368L470.55231829030345,623.6893185131476L470.637675462076,624.3619782225642L470.637675462076,625.5799493719651L470.19725517976985,627.5430066632043L469.8990021669215,628.3972078378238L469.2314835191173,629.1968348328628L468.2657118584666,629.9964128099646L467.5474901984762,630.3394894245712L465.9359297523861,630.5897043375871L463.9765494832136,630.5962458395652L463.52192667648706,630.6505765209222L460.14158383895847,629.3605705866121L459.21841975157076,629.3060528058422L457.8548353818751,629.4150881395199L456.51979808626857,629.9239076459171L456.12212740247014,630.2328240919651L453.7075562255959,632.9037377273135L453.39510068832533,633.557755693616L453.3382905906401,634.0482476597454L453.4235057371661,636.3006407444809L453.08264515105475,640.2595512346625L452.7843921382064,641.2037012555384L452.4293290276728,641.9117689887644L452.060063392717,643.037336132852L451.9038356240799,644.0357419581705L452.03165834387437,646.4495720677996L451.8680452625413,647.9151859564745L451.56581554285185,648.9342678568191L450.95681129566583,650.2987260814198L450.6909400384975,651.5788648778625L450.488696090737,653.0359225493357L449.89559867090065,654.8874867727327L449.0593540329719,656.4486335549891L448.1594820856335,657.3132778372574L446.69591194401437,657.9573716864115L443.9257095556259,658.3838488204037L440.853987573777,659.0752127138721L439.72162030165964,659.1528143544238L437.57192620524256,658.2476750211272L433.3831756776508,659.9275363537918L431.5793130508937,660.4895573207941L429.7897949738035,660.9065250296517L425.9691738792135,662.1029673495741L422.9722992010629,663.4261777641832L419.8618043275401,664.4411526856584L418.3534962339909,664.7159073698504L416.99005388954174,664.7999999999993L415.44694961115965,664.5941170863598L414.21076188552615,664.246138608255L413.1018287787065,663.7908528064363L412.70415809490805,663.5443538899008L411.5291832495277,662.5729942495209L410.7588383249131,661.4273534332469L410.29754033170866,660.539775439488L409.7521633939268,658.5961755796843L409.27950338118535,654.5310882807998L408.6953535517332,653.0422714245706L408.3749446007896,652.4240579148136L407.90001218413636,651.8667699917996L407.2364702431714,651.4023452498823L406.4365840677601,650.9291955846975L404.50489872121216,650.067032240654L402.986932911057,648.9930586198834L401.7575623971443,647.8230001287611L400.55077389706094,646.1911307825958L399.1055250119425,644.4312710953245L397.0829435090982,640.7249167837517L396.1376234836134,639.6006030222843L395.65132904742313,639.1967561070296L393.64919917974476,638.0694051015571L392.86521983168495,637.5027873025774L392.1289609656833,636.7879420767931L391.2609026730497,636.4857193152475L390.03607696695144,636.5353032168268L386.61142225322874,636.2795717712515L384.3706899752706,636.529491194151L382.9072618588925,636.3609414109615L381.43928893470184,635.773906212271L378.591824813464,634.0446144536891L375.8398016563351,631.5999641131402L375.162625291925,630.7454275360105L374.75359258859135,629.9633403289808L374.1673123804758,628.2972510163336L373.74450322845223,626.6396734875971L373.5308972611565,625.3018256868763L373.38944011791864,623.1086216464846L373.4604527400261,620.708472850295L373.02017448296283,618.1078126494222L372.4662760305291,616.4891396761705L371.57137496674113,614.8700835687896L370.8186411724091,614.0240921593031L370.4351730130311,612.6867678044173L370.53459068398297,611.3766025614941L370.76183107472207,609.9935072688559L371.3441345760002,607.5545337331378L371.4577547713707,606.8810052567915L371.5287673934781,605.7705172990873L371.3299320515798,603.7315237837447L371.1452992341019,603.1488434569746L370.7334260258813,602.2929843847714L370.16532504902716,601.5281264794621L368.78753815490927,600.6903733285644L368.0774119338421,600.5993099502266L363.8875252042981,601.7830841143486L361.124708128611,603.0206502809733L358.8880945827332,604.532666604402L357.4962471894414,605.6614659104871L355.97657707635517,606.1712141322905L355.02500794012303,606.1165992069018L353.9028664855923,605.6978771602753L353.1501326912603,605.5522315495336L351.37197663370716,605.4282494383133L349.96081380719806,605.6589171191881L349.08522817662197,605.9587607835101L348.68968787148697,606.2178186872952L348.3613255068667,606.5664373083991L347.94235103643405,607.2314264509132L347.59041248127323,607.9185886617915L347.03708212981655,609.3852627782408L345.5080383506138,611.6579352722401L343.9152252367585,612.9052978135187L341.087928700199,614.3401173173752L338.45762117736376,615.0267223988658L337.79152278199945,615.40803274279L337.090486176563,616.0511048081371L336.31105163631946,617.0719506037758L335.6453793166893,618.3220684766356L335.1107962974693,620.8601316985987L334.73272509737217,621.7716842060181L333.8702057892642,623.3193408764382L333.36942477816774,623.9434788832586L332.7638291368403,624.527047247143L330.76269344586944,625.3503614239798L329.6523400866081,625.4374344470571L328.52991458158795,625.4039868410109L325.86651517684913,625.8864238950919L324.29671015255735,626.0031222645275L323.0789857086693,625.7082841830461L321.36772354113964,624.6939320877236L320.0429120631161,624.0738295968786L319.03297055151234,623.8885748452603L318.1727236473125,624.0071091015652L317.38718202156633,624.3183472941291L316.8964848028063,624.8311832695226L315.96366299881083,624.9547989911671L315.55392016925725,625.1707601157514L315.0308411948172,625.7731782171213L314.9149485955386,626.339760306596L312.35792609871714,629.2228218877153L312.0211842446897,629.4525233938994L311.2673142484,629.7049359697376L310.16548240379234,629.4159967634678L309.3302319425711,628.9351441219424L308.81666865949774,628.4826248782438L307.9511668212581,627.4052387661723L307.7297494655286,626.8616048005961L307.5880082718031,626.1690793617636L307.52665336630344,624.956616860678L307.2636226140203,623.5200573201519L306.51756400616614,622.2702562682134L304.76099578573303,620.781938508032L302.4259587456181,619.2661708118512L300.9750288507312,618.4426540349968L299.605763471267,617.9086497853987L298.4052240819292,617.5998049107875L294.5302073188068,616.9944622645799L293.3719914522444,616.6435761977182L290.5016612666859,616.4738596380812L289.56642503354124,616.3316088993697L288.1367989252867,615.6363406054816L287.74566140272145,615.6996475749002L286.5739531379604,615.3625526107635L285.9919336871735,614.8799076622963L285.3864800710908,614.1270695357698L283.95813219003503,612.7009605392122L282.98312888850705,611.9570948214096L281.4175846215403,611.0346641264086L280.2521254675248,610.5869823448793L279.0616698705253,610.3451185849244L277.30254519569644,610.5161889782403L275.03596432329323,611.1200130922753L273.25042295303865,611.7416424082221L272.22386448786165,612.2018400690022L271.3684464419639,612.4012721989529L271.42056970658996,612.2329560495755L265.6000911482279,613.7842936277884L264.0113967664565,614.6499491593186L263.0035856335162,615.7480371773318L262.6925503486891,616.2513875290524L262.52652283820134,616.7341635525681L262.23977387013474,618.3273429814208L262.1605237838612,619.5464238141913L261.72876704145347,621.2185414582927L261.3140533283495,622.3578953379883L260.7710908197205,623.1313482156766L260.3195925683667,623.5220571967056L259.96325123063434,623.6800464746275L259.4123353083287,623.8878476379086L258.7580250082374,624.0081999026006L258.16151898254066,623.9831114557128L256.5462658800989,623.6253231325281L255.68900150602713,623.2882513682134L253.06352284149216,621.8638723813483L252.47298187605338,621.8422345841727L251.72862757113035,621.5243912050346L251.22756250954626,621.1487150637013L251.0880937197253,620.8595861663389L250.68133342029978,620.5946366317703L248.20611746414397,620.3713256335495L246.54257577866883,620.0656306755063L244.76370959489395,619.612803428121L244.3880528239497,619.4713144185316L243.7834513593334,619.0459288228758L243.383934347361,618.513040564434L242.8725014429474,616.9491695711431L242.67650660593245,616.1384219044112L242.27599541724885,613.6456524011437L241.756325048671,611.6925100240978L241.26023087063368,610.9922624064839L240.754194925501,610.5942618466061L239.63603017780952,610.0497438784214L238.53277808075472,609.6957585808987L237.45864115876793,609.5441516497258L236.32613186140952,609.1566632433614L234.59896286652838,607.9857556829902L234.2181931867908,607.6491889946119L233.6644367596018,606.9110417290149L233.50906114243298,606.4828789184303L233.39302651790968,605.9813352544079L233.35979261076318,605.37217490883L233.08483173796594,604.0842147839921L232.86739108907568,603.2009215737116L232.50849329694938,602.3108305320293L232.0325667035886,601.535957395532L231.046485433013,600.5597882455177L229.9810120509228,599.9392635143122L229.03824847983196,599.5352781616393L227.05855860074007,598.9556884261065L224.66344488232062,598.4893749667008L223.3921769213648,598.1973740742878L222.7821784974676,598.2152258455262L221.3947338867456,597.869662202087L221.16678336978293,597.7528934957554L221.18624082823953,597.319328119559L218.98144093706833,595.6736518942716L217.62254340043,595.207949442396L216.40439288081143,594.9871175618937L214.0338495296437,595.0381351614787L211.6715436426366,595.9841109211256L210.15798061505484,596.3040362879256L207.74227323622472,597.2322489591297L204.70676769164675,598.0500049442326L203.69043504405454,597.8997194995827L202.01908197014745,597.9445320685772L200.8713759716593,598.0676747550515L197.62709331808583,597.1985466169635L195.5674432265023,596.4696437619805L194.5989730862093,595.836716686099L191.8389965154056,594.6042969666714L188.88146282990238,593.6159445123003L182.85305931401126,592.5205420049342L181.82564869737143,592.2165609990216L180.78716011168217,591.6481265827088L179.4869190009049,590.1816367740867L179.026615184408,589.4685632343044L178.33338996740167,587.8494200470732L178.17361156766128,587.1192629476782L177.89538411424837,584.9095809930841L177.82976845142002,582.9209284138906L178.0981961629841,579.4016977711071L178.05629871594283,578.0128217563442L178.026331389412,577.3118508178632L177.72665812412197,575.6877222575768L176.9168301816153,574.2851259409344L176.55693821277964,573.8699385311511L176.13682754039473,573.1676484009531L174.52299469039644,570.2155329386405L173.98514509055894,569.5975716421017L171.9807428189706,566.8738091231362L171.26976444643878,566.2060182535779L170.09834023216717,564.2663624812185L169.11666174416132,561.9820866434902L168.9192466547047,558.8743052830023L168.8071887370188,558.0725296362461L168.5079415474611,556.9229509848738L167.75009484433758,555.0095009687002L166.4744241008102,553.0855311360747L164.64812148546844,551.1693191120075L163.25627409217486,550.182035445152L161.8786292233017,549.4323807960418L159.83346570662798,548.6280078372874L156.08385723414358,547.9331238617115L155.04707295138724,547.9148369365275L154.08130129073106,547.7136790509348L153.85406089999015,547.841688976926L153.2290078002061,547.841688976926L151.16594910276035,546.8768286238856L150.5604954866776,546.4889256717333L150.25045437855806,546.1408821313671L149.9766297077149,545.5373161842499L149.6215665971813,543.8363887452879L149.50794640180902,542.8485444015969L149.57895902391647,541.8789199665907L149.53635145065164,540.8360350377388L149.29490853549032,540.3054121174646L149.39432620643856,539.2806992183523L149.55055397507385,538.9513099345259L149.16708581569765,537.487255824648L148.44261504496535,536.1328578482862L147.7892989215834,535.2542533924125L147.1429420351651,534.6514595135304L146.35484395502317,534.1744031487378L145.40327481879285,533.9181107852946L144.196060242979,533.9730310062223L143.38637432571522,534.3940782638101L142.71885567791105,534.8334172695422L141.75308401726033,535.9316993185776L140.90093255197644,537.4508353610345L140.50326186817801,537.8534679381282L139.71942454536475,538.5157711951579L138.62852864456,539.0612902914772L137.23668125126642,539.3540786858957L136.5122104805323,539.3357796058581L134.14038890216762,538.0547795151242L133.82793336489522,537.9632746422203L132.79114908213705,538.018177643833L132.27985820296635,538.3292902403437L131.83957994590673,538.8416946361085L130.9306183829376,540.2141061806369L129.76601138038677,541.183855674305L126.88801183164105,541.910571121588L125.57086971680474,542.6374286040937L124.68378004144688,542.7978696073733L122.95334446594643,542.757805279085L121.2016051038172,542.1535323167109L118.659353232395,539.427274746562L117.67937904732025,538.7318954070515L116.41521234857646,538.2743885625023L114.8387321378068,538.2194866510663L113.75934028178017,537.8170485082346L113.0634165851352,537.1398846037928L111.33070860572843,534.4308734797396L109.61206112549917,531.9227005392358L108.97294752653943,531.1170524274403L107.89355567051643,530.2199772586637L107.05560672965476,529.7621683631987L105.33695924942913,529.212776225474L104.39959263761557,529.2310896739982L103.87409923402811,529.3592830851185L102.12718873019912,530.8425712663548L99.67838946946904,534.5954438324425L99.15445834356615,535.1012236636561L98.28242334409333,535.5328507013601L95.87750988382322,536.2278533701483L95.6661763204338,536.6012393943693L95.44944579776347,536.7128870380429L94.54190448723966,536.898110178051L94.56633282924304,528.9155453177527L94.59232344893644,527.3529100217447L94.54162043675024,514.5963885274114L94.59076117124823,511.45919788893934L94.59246547417933,510.82246144803867L94.58422801001689,510.2333788126907L94.6163257152075,508.24566769641024L94.61788799289388,506.459822227077L94.64217430965255,500.3011092028464L94.65623480883187,499.5114676886742L94.9259407475929,484.3959464557938L95.16724163751314,468.65539978795005L95.19550466110923,462.47150282514576L95.19550466110923,462.4530939078277L95.22390970995366,460.44654716590503L95.25231475879445,455.6401590132891L95.28071980763707,452.28750803213734L95.28071980763707,452.1032709406254L95.25217273355156,451.90060707106113L95.3162261186917,440.74858470862L95.37047976198119,435.7761281842468L95.32844028969521,433.3113138615181L95.34108053642922,431.2344854639996L95.39803265935916,422.71936431681206L95.38951114470547,411.81715536522097L95.39093139714714,411.5798421144309L95.3866706398203,409.1950046660777L95.39931088655612,407.04249978349617L95.39093139714714,406.5222055598979L95.4373736520065,404.59744948683147L95.44575314141366,404.19985089521833L95.4585354133942,401.18731364976793L95.46265414547634,401.16622633038696L95.48040730100365,399.76032605951696L95.49247944676063,399.3000448898265L95.55127789786457,395.6555015609383L95.5886305370932,392.3477329379366L95.60127078382902,392.2079777580984L95.64203202891804,387.51816005340515L95.64970139210345,386.62039663824726L95.6729935321564,385.5877419630806L95.81232029673083,372.98928606116897L95.97039439354012,365.7787866585122L96.02180753194625,363.0489513414559L96.16823555872907,352.23011438730737L96.22518768165719,348.5524924393221L96.22717603507772,348.1793216666629L96.44376453250334,338.6836243358848L96.50327310982902,336.429667264184L96.50426728653656,336.41572285784787L96.52770145183422,335.361852965897L96.60553128566244,330.5889580826142L96.82268788406509,315.91545393726847L96.84839445326907,314.49687230396466L96.81970535393702,306.5361026994342L96.76502563491704,295.5895210714061L96.84683217558086,286.07121071208894L97.04296903784052,278.74296254795354L97.05205865347125,273.84162821843984L97.08302015670779,265.5857658162986L97.10148343845503,251.99562837259964L97.09324597429259,249.10541681947416L97.08941129269806,246.39449854527993L97.09835888308407,243.6698801670118L97.1026196404091,243.28009200214L97.10730647347009,241.2061992934805L97.09495027722187,238.18475381861572L97.10375584236317,236.3930129166547L97.08287813146308,233.74362818250302L97.0442472650393,229.390742349402L97.09651255490826,222.80968669831327L96.98786324308458,199.94121427476148L96.93417770077394,187.37283885009037L96.92551416087372,168.52557269705176L96.94539769506446,162.47288098704576L96.86785191172567,158.87024480178934L96.91997517635173,154.31896943352604L96.89426860714775,152.70508915291884L96.91159568694275,152.57565263839842L96.90875518205758,137.7282506804604L96.89625696056828,134.2497215556914L96.89611493532539,134.22383343577894L96.84711622606847,115.90333967417428L96.81771700051831,108.26812620033252L96.83007319676472,108.25506013843187L96.83447597933446,107.63128156051334L96.84285546874344,104.89018193268566L96.84811040278146,103.10898253711184L96.7717008213931,93.12263020067167L96.75835044843552,90.82071230125075L96.73306995496569,85.182034816341L96.73306995496569,85.15566381772715L96.57925661548143,69.43510281354884L96.5957315438136,65.94726606405675L96.59899812442927,65.76788863976344L96.52273056828744,57.74490314695413L96.54090979954526,53.64869729089423L104.5123606815232,53.23860181872078L148.80833004881242,51.97208847195998L154.70521818856287,51.775765261803826L159.8182690054964,51.64526184946135L191.93429545427352,50.44479342409795L208.27344764958252,49.73377898487706L211.18837376182273,49.704477529677206L225.2609450847267,49.10720724179009L227.99138040473372,49.08437377511564L230.97362648273338,48.861935522995736L244.67948862507728,48.42427787572251L252.36319636227563,48.1198111421636L255.7149921257169,47.87261663620757L258.4702818634614,47.7774673033382L262.2056878115236,47.62522683048792L262.63176354416464,47.606196638089386L268.5117506798506,47.35899174718543L268.7105860217507,47.35899174718543L269.9320031219868,47.320930503915406L281.42198740411186,46.90243932010435L281.54995214914925,46.90243932010435L282.0754455527367,46.88340800256992L282.3594960411647,46.84534527862161L288.59454628738604,46.693093197716735L288.33975299926897,47.683078433489754L289.280670242184,50.86563665649646L289.70234319225165,51.60226770897134L294.88640663129263,54.56965009968462L297.2867752837483,54.436513748991274L299.6870019109574,55.44451007918542L302.33676689225103,55.232267187864636L304.5035040179737,54.13771246450506L305.04774475379963,53.155477823285764L305.0488809557537,52.25610474854693L306.6327464792248,52.607644228454774L311.3049509381199,56.547695413800284L311.7662489313243,57.31821166320242L313.50250754183617,58.21493109119638L319.22101197485244,62.190242479977314L320.1485788448099,63.511004986266926L325.4228283139273,66.02137249585485L332.33051011674434,68.5110880504335L338.2897473387038,69.33670159599842L340.83086300817376,70.64320779660102L343.5922598314173,72.79698634161196L346.9318414238551,77.995074239323L349.0632142637696,80.33109423887527L353.0620770398473,83.58032072462447L357.36174928317087,86.29430814938496L362.3714057223151,88.16766234032275L367.5753526955468,87.2405053531993L368.928569222413,86.62078098293296L370.7707786651099,85.25944001021526L371.5955192582569,84.44779950874909L373.3924226480485,81.73435250816874L373.6158283571949,78.72570960352277L373.0002909487739,76.39887654131417L373.933964904234,75.07817341988448L374.68669869856603,74.63917331291032L376.61199290912555,74.26927693735979L378.5852916522308,77.48233166809587L382.2613310482102,82.07138387635678L383.51512990412994,83.17407215347612L385.43048234759226,83.19209841445718L388.56966632044714,82.07442015291417L393.118592867364,82.93593327271356L394.10467413793776,83.93817264034806L394.00568254272184,85.73050079974928L392.54537898171657,87.72685420639664L392.84405807029725,88.93714188175636L393.6830011878683,90.5679301168193L394.2356214131014,91.34674046725831L397.3732431082699,92.3452597166679L401.57988881663186,98.11672592528612L407.3400066462036,103.80952117303332L407.4526326648647,104.45508769700336L415.8139428422073,109.83727827224357L422.0989859743913,112.81862716288015L424.1907337711691,113.3327365005307L426.7308552639315,113.37040419758978L429.65870567339334,112.4288664880296L433.81777292494553,110.4315989374918L438.53712976491806,107.19760993429372L443.69293018036115,104.79244334042596L447.6131109711441,104.11071399734374L453.6636704251323,104.45186752555765L456.9445955917108,103.997246623303L458.9046859871032,103.3154731949744L467.61125953312876,97.61221463579386L468.2539237631954,96.93804757439648L468.63398331671124,95.9253059778257L468.83281865860954,95.81157346574673L469.2838908342328,96.26763448607107L471.5882504215988,95.73575120616715L481.70101591058483,91.83046169586942L493.3759170606736,87.92374034603472L495.8472983352349,88.1511607719267L500.05877290190074,89.85696417741565L500.3780456508921,90.63544034674942L500.97469370183535,91.14725442770578L503.90055575787846,92.51230371953352L512.4933670832907,94.02867873367722L514.9217147088548,93.9536038050328L521.9525323984035,91.71498470176721L524.3102934775943,91.52536495067488L526.0002518584915,91.63875791371902L527.9036741814434,92.47324482587919L531.326624592235,93.32625521568934L532.1787760575153,93.06082156742286L536.1273618971409,90.55787940478149L536.7081031207326,89.77617429891052L542.6750097058775,84.9243934240576L547.1060553000989,83.21524788972602L551.9214212051611,79.38341504845994L557.1625787923749,74.27649268180812L561.8638984263325,69.14863529458398L566.0255221322805,67.45780860465038L567.7014200140002,65.95676691370045L570.911474583716,62.573998636345095L574.2338711216053,57.991137674815946L581.9050806373143,51.54576632993121L586.9332003582094,47.62636864108936L594.2621290353636,43.286718339891195L596.3500421505469,41.43999626273853L597.344218860042,41.49692516410778L599.5741572194402,41.839825745390044L601.7829338174506,41.24045741722966L610.9157251213601,36.40711848477349L621.0681156534829,30.519973293436124L623.9326228040281,29.487620347225857L629.7266846669663,26.329415931026233L633.6174662321955,25.01168319179942L635.6107905347344,23.58302534102222L646.1555968166176,21.98314175037285L651.2545871343737,20.73207341588568L663.3834009649709,15.241493135935343L664.2704906403287,14.495031908459168L665.3929161453507,12.962849483502396L667.6812268801186,12.602150796781643L668.0547532724013,13.535365153154999L671.4785558346575,12.253465247516033L676.7518111270656,11.033464402112259L696.4839464066372,3.803711373612714L700.467186405851,1.854536616090627L705.3544170844871,-9.094947017729282e-13L705.3572575893686,0.26077547185559524L705.3716021390337,6.404289638173395L705.3657791040241,9.234541856784745L705.3808337799092,40.50796197954969L705.3623704981619,42.91663475088262L705.3568315136363,45.415623536581734L705.3618023971849,52.62457417568385L705.35455910973,58.376546561791656L705.3640748010912,58.65433004908755L705.3666312554888,83.43554521905116L705.3924798499338,85.43303076560278L705.3828221333279,90.9041501396623L705.3907755470045,97.98349298796165L705.4157719899868,103.1235696056674L705.4157719899868,106.72566693301542L705.4112271821705,106.72547754615516L705.3794135274675,113.8292215662077L705.3839583352819,115.13743858492217L705.3794135274675,117.21455317706295L705.3657791040241,121.0533408616875L705.3657791040241,121.16589445291174L705.3731644167201,121.25877403698632L705.3731644167201,121.37227155975052L705.3706079623262,121.37264988307925L705.3748687196512,121.72789036043105L705.3748687196512,121.73337588919821L705.3748687196512,121.95790216052137L705.3771411235593,122.42377639166625L705.3964565567712,126.41164270716854L705.4440350135847,127.71606646350847L705.4153459142526,134.74895481958447L705.4157719899868,134.77635348659624L705.4299745144071,135.3432088073232L705.4583795632498,138.42266767020556L705.4299745144071,141.50116951289692L705.4299745144071,143.9937798987794L705.4389221047932,145.90878259768033L705.3943261781096,153.08244734843083L705.3984449101918,157.92726924478575L705.391059597494,160.22366627221254L705.4130735103463,161.77491209640812L705.4130735103463,161.78603616652708L705.4068243995989,161.78603616652708L705.4159140152296,163.5014743392694L705.387508966387,165.49959682255303L705.3970246577501,166.35510932081252L705.4017114908092,168.27004428399505L705.4022795917863,169.8875481642981L705.4149198385221,171.21772271089594L705.4204588230441,171.8107913156582L705.4250036308604,171.9826025820321L705.4204588230441,173.7548323550036L705.4251456561033,182.44635235079386L705.416340090962,186.1994519437294L705.4018535160521,200.18857257189393L705.2882333206817,202.89490699140606L705.3025778703486,204.00358214252174L705.3062705266966,204.17325708728913L705.414493762788,208.36554070090915L705.4119373083922,213.52434582802925L705.4032737684956,213.69633174220326L705.4159140152296,222.69336247756746L705.4065403491113,224.36738846354638L705.4160560404744,253.12951539599726L705.0004901759057,253.46808930804855L704.4688896868138,253.64102236017425L703.8392917792171,253.60602419756287L703.4637770335139,253.73048245863174L702.4974372718843,254.3795168803499L701.5954349458862,254.83239867112843L700.8520748176707,254.99240050416847L699.4894846246862,255.95929196430643L698.4782648858836,257.10591668037614L697.8965294855861,257.4980801064985L697.2148083133616,257.7285826388761L696.7716895514131,257.71361507100755L696.2352602040191,257.48610583284153L695.0399757487157,256.1808412308328L694.7536528563814,255.9622858994926L694.086276233822,255.66307595628768L693.3602431854015,255.70031385669063L691.6380450740708,256.3305344580058L690.0517651214468,256.6598532472135L689.0314557670154,257.37852395344635L688.317920940086,258.27937667250444L687.5248519763991,259.70713735063146L686.5657555022244,260.81151962499916L686.245346551279,261.04794651461725L686.0726438543152,261.0359756402986L685.0250656529952,261.9606919343478L684.5524056402519,262.6848556610821L684.2591235109503,263.66330781623856L684.2841199539307,264.48610588955216L684.4068297649319,265.31483324353303L685.0046140178292,265.96700606331524L686.0544646230555,266.90033187963127L686.463497326391,267.39388950629564L688.0337284264169,270.0346529554354L689.2087032717973,271.8497962998972L689.5813775126117,271.99631204279376L690.0040446393923,272.39398898798936L690.7584827366536,275.2521073083808L690.9448198570626,276.7915137318314L691.3538525603981,278.6983219069625L692.6242683698874,281.0409002292008L693.5627711836514,282.0268821344853L694.0252053788117,282.3368528441961L694.550698782401,283.6998860842614L694.6501164533511,284.42802119054886L694.4654836358732,285.9214993379446L694.1530280986044,286.8548328562847L693.2865320836572,288.4598174035009L693.2155194615498,289.03837526090774L692.3207604230047,290.69924794372764L692.1645326543694,291.2403836841777L692.0651149834193,292.26661150421114L692.1645326543694,294.28150559572896L692.1077225566823,296.3147281885076L692.2355452764768,297.0234806719036L692.1787351787898,297.24728893296196L691.7526594461488,297.76949269386023L689.920391770549,298.5154603925366L689.3380882692745,298.9257237372376L689.1392529273762,299.5224464937255L689.4233034158024,300.45458258245526L689.5448770248477,300.5604900475755L691.1844164440499,301.14445672178863L691.8661376162763,301.7037863164651L692.5337982893234,302.41223471705143L692.8320513021717,303.4189084569771L692.6758235335365,304.83557190033935L692.2354032512321,306.1029775027846L692.0933780070172,307.5007031115347L692.377428495447,308.767839993724L693.4995699499759,311.1897658302669L693.8404305360891,312.4379030005957L693.925645682617,313.08986569942954L693.4995699499759,315.064175161202L692.9739345211419,315.6601322225488L691.7951249941689,317.8760998879534L691.5252770301631,319.12357385430096L691.610492176691,321.5435069312998L691.1700718943848,322.865067946781L690.7155911129012,323.49787903337347L688.6418805221383,324.89367339977343L688.6276779977179,324.74479603847067L687.5766911905357,325.45194783003444L686.5115018589349,326.6242435878885L685.1700734273363,329.44698183032233L684.7786518542853,331.42393597476894L684.4946013658591,333.8229108143187L684.2388139010291,335.05021189497984L683.5997003020657,336.40754213228865L682.6055235925742,337.52304663736777L682.2635268045069,337.6859020403117L682.0225099650761,337.92386049141805L681.6771045711484,338.40868694220717L679.0546084367452,343.3867467593691L678.8569092967973,343.98731175759167L678.668299772482,345.21213792293656L678.2819911082206,346.45467990573707L678.2092741831839,348.8769878743069L678.4569662090926,350.2111021460032L678.5569519810197,350.3656222145628L678.7137478506302,351.1055094194262L678.756355423895,351.55120368350345L678.6143301796819,352.5725270586454L678.4154948377818,353.29668814470733L678.2591250439036,353.6494695337087L677.8614543601052,354.1507735094074L675.3474655122809,356.08153632080666L674.4811115225766,357.26955143793657L674.2254660829949,358.08624705622424L674.2396686074135,358.86577092338575L674.4385039493136,360.0720821519917L674.836174633112,361.05560458619766L675.0066049261677,361.2226102310824L675.3190604634401,363.00386654667L675.3190604634401,363.4676942052174L675.2338453169104,365.174433530703L674.9781998773251,365.953520580023L674.5526922456611,366.5736024806629L674.3980267547122,367.0068812783411L674.4048439664348,367.8644921341793L674.3389442531188,368.2739882327205L673.9549079927656,369.300637583302L673.7572088528213,370.6535511509037L673.7367572176518,371.07779031456084L673.8731014520981,372.7063806395763L674.0208077060834,373.2491975281373L674.2094172303987,374.88344011591107L674.0093036612998,377.53752267975324L673.5775469188902,377.84885904782186L673.1367005608518,378.38256073472985L671.8776467708976,379.2482956534486L671.3958971425254,379.67817628643206L670.7073587585783,380.7392890182282L670.5505628889678,381.3440112651697L670.5460180811515,382.019843159369L671.0003568373904,385.2621493950337L671.6434471431912,386.8385471422016L671.7638845502825,387.5851934679631L671.693440029152,388.0710825434908L671.4275687719855,388.719893198293L671.2866797297247,388.8976437499459L671.0935253975949,389.0013304213735L670.8185645247977,389.0013304213735L670.0118611376638,388.8650563352976L669.3913528456942,388.55695300422485L667.9415591527613,387.47260675733014L666.1144043859531,387.0044723471374L665.4304108098222,387.05187914977705L665.0236505103949,387.1763211635016L664.6509762695787,387.4785323985934L664.4237358788341,387.88443223482955L664.1872638472196,388.7406308910149L664.1304537495344,389.51975106478767L664.225894713647,390.0529616225949L664.628110205258,391.1489351668124L665.1734871430399,392.2033500768075L666.0507770765471,393.3287524630887L666.3593979322231,393.83644656042816L666.9037806932938,395.78615108752456L666.8178554205442,396.70621137384296L666.4812555917579,397.35920646367686L665.5201707641645,398.2545452460581L663.1722094268243,399.3424106946186L662.4835290176325,399.90665793630524L662.0578793607256,400.4288880432905L661.7954167094194,400.96922468164666L661.6761155042786,401.44683279258606L661.7806460840202,402.5296159643103L662.2348428150144,404.06799335916367L662.3129566993339,404.5327249825541L662.355422247354,406.9851834112251L661.9594558664849,408.9478447113215L661.8018078454097,409.41147364844346L660.4906307908277,410.87064831920725L656.5512765920739,413.7339813602166L656.0852917658121,414.37316714121425L655.6928760160499,415.36616049678014L655.5734327856644,415.88516916405933L655.9053457813916,417.0747997827566L656.2258967575799,417.78882034487106L657.7344889016204,419.7577577104503L658.0155568599166,420.04441874996064L658.9595986582062,420.6406234822225L660.3079863267703,423.2052044307284L660.5968656735004,423.6378468979583L661.0246457090707,424.0268986550209L661.2842678554935,425.03021696202904L661.278444820482,425.4367654758653L660.9791976309225,426.57842905898633L660.69358486481,426.976805688666L659.9507928375733,427.431656078782L659.1541732427759,427.72571264262115L658.1203714901476,427.8881515251787L657.7512478804365,428.08879760381114L656.7401701668805,428.79906302175914L656.4589601833377,429.14993576955567L656.15971299378,430.11704682244726L656.0851497405656,430.729204949037L656.0368611575341,431.59285709013693L656.1923787999476,434.49636603276485L656.0401277381497,436.3660632153096L655.5920380926545,437.4211635072206L655.454415631013,438.1609728561207L655.4967391537884,438.36772815568656L655.4190513452031,438.8843250985947L654.7114815785335,441.07497270161093L654.0925355642503,442.2510066341092L652.409820470808,442.97928939037774L651.7982597692226,442.9791050202548L650.415928067292,442.6704657021746L648.8006749648521,442.6203157173104L647.6330854321695,442.86129196785987L646.5748553375361,443.33769987129926L646.0615761049485,443.7425588632068L645.0850105257359,444.7915190019994L641.2994696664646,447.88793734607316L640.1308859570763,449.10609720006323L638.8430010425473,450.2587269505102L637.9961045113014,451.36592750461205L637.554548027043,451.75892469271093L635.8706967316448,452.9236582832673L634.2523190738302,454.2846518369379L633.7062320098303,454.85512807992836L633.313958285311,455.54880172195135L632.8158757538549,456.1632406071694L630.7234178308572,457.8043622526984L630.0057642718457,458.61591306438095L629.7178791018232,459.09154960175056L628.5252931261621,460.30054060642215L627.0745052565198,461.5438445076197L626.3138180485112,462.70934365435824L624.1148411923532,465.0442565998583L622.7798038967467,466.847839274903L620.8482605754398,470.6934065250525L620.7488429044915,470.6934065250525L619.3854005600388,473.0664098842926L618.8457046320273,473.80213556713716L618.2774616299284,474.3722939016916L618.0076136659227,474.592993539658L617.4821202623352,474.8320805226849L615.4369567456561,474.94242685578047L613.8766674127273,475.3082181511372L612.8662998253913,475.67804478391463L611.5454650542033,476.4235504531007L611.2084391496865,476.71556206228433L610.691609285992,477.2307955328288L610.0144329215818,478.5489413156138L608.6370721031981,480.06733455688664L607.9537886532871,480.8976958374351L607.526576718692,481.5666150265488L607.1570270332486,482.2253900247224L607.0718118867208,482.50697659865637L607.1517720992124,483.4110629604911L607.0404243077501,484.1710049228759L606.8401687134083,484.5975451138138L606.2364194002548,485.16097542155694L605.6602229844812,485.42154897274486L605.3464892200136,485.4417624966072L602.7532502859176,484.6673780028168L601.7238513158572,484.71956865048924L600.2041812027728,485.3248911363771L598.6521293340065,485.4689588238962L597.9475420974613,485.8599915318764L597.1340214986067,486.6919988992995L594.8457107638369,487.5886248609413L593.8116249607174,488.294122541447L591.7096513463548,489.99303690623947L590.7756933404089,490.5632103383041L589.4371054136936,491.55360602262317L588.4395200983381,492.4263839638443L587.7373472909458,492.84365076232916L586.4102634090141,493.319670967363L583.7046825067446,493.59164835260435L583.1773427749813,493.5211294489136L582.4839755327284,493.2699027059389L581.5334005732075,492.2845983193847L581.1719463266836,491.75343920791966L580.8752555915235,491.0468459703061L580.1848708793987,488.53607726384325L579.8971277346227,487.1226811591514L579.3405308025503,485.0690934991035L578.4859649081172,483.8694227051874L577.3679421856668,482.81079642849545L576.2226506163297,481.89251436728136L575.2284739068327,481.3226905834381L573.680256719661,480.97343122711663L572.31681437521,481.1756351722779L570.66917951709,482.1866070550641L569.8959940875902,482.849026120919L568.5166449157878,484.77800722220763L567.6440418153379,485.80707050962064L565.635094735937,487.79733863286856L564.1716666195607,488.9349159757612L562.6355215781441,489.9342546993703L561.1924030716928,490.5543934162397L560.0738122482671,491.5389122832412L557.9148865109746,494.1284240806999L557.6166334981262,495.5974183898443L557.5456208760188,497.965817762637L556.8496971793702,502.37098040738965L556.8212921305294,505.618637006618L556.523039117681,506.62768575370774L556.1111659094622,507.1780425984862L553.9364753700611,506.98138445785935L553.5069910315615,506.7905938345766L552.5728910003672,506.13014288846625L551.4094201997705,505.73679153602825L550.6913405650266,505.6428551042436L549.9119060247831,505.7720175209679L548.8596409904021,506.0831761955924L545.7531228237185,505.43149562276994L543.9124756587098,505.4021398643599L541.917163002754,505.6575327169621L540.7605094138798,506.0626282134954L540.008343720523,506.5792532234582L539.1766438904087,507.4774268280089L538.8106448360704,507.9939949890422L538.1970957810663,509.12978495243715L538.1107444325844,510.6498843047011L538.1607373185489,511.13111383781415L538.2902643412726,511.7296913018936L538.7903352261474,512.9707705306337L538.9516759035741,514.0621171592566L538.9130450371485,514.4640145041776L538.763066379257,514.7397616257767L538.4494746400342,515.1680379922582L537.5540054752692,515.7662443489462L536.0314948572977,516.0624956141701L534.2225193217473,516.5611209592198L533.8521174848393,516.8250912626208L533.4294503580604,517.4087397152362L532.9454283257819,518.5114404369524L532.5977505279479,520.2708736561517L532.4159582153534,520.716558571944L531.7842299290896,521.4935381490432L530.6025798972332,522.0628658284595L530.1905646637697,522.3950689040748L529.7644889311305,523.0730077785074L529.693476309023,523.7509109724851L529.9775267974492,524.8134982450838L531.3456559749611,529.037881481293L531.495634632849,530.2245552655168L531.3592903984045,530.7929479643808L531.3148364969657,532.2451287805588L531.3531833129018,532.9924868070666L531.6961742776784,534.8303053375412L531.582554082308,536.6971466090863L531.4547313625153,537.4658428007051L531.2274909717744,538.2527938385447L530.971845532189,538.7469013568052L530.2475167867015,539.7533581523703L529.0545047353062,540.8146275698018L528.4720592087851,541.1988587733849L526.9523890956989,541.8575142281807L526.114440154839,541.9124006657485L525.5321366535627,541.8209231401552L524.7936053836529,541.6013744337852L523.7424765512296,541.0341896581167L523.046552854581,540.8512215105584L522.3648316823565,540.8329245531468L521.9671609985598,540.9610027103317L521.7257180833949,541.1805623087612L521.5126802170744,541.6928535152338L521.4700726438095,542.7539634876466L521.5836928391818,544.1442514511664L521.825135754345,545.2966135327961L522.2086039137212,546.1013768593484L523.003945281318,547.4730169558088L523.430021013959,547.9667717364055L524.4314410109073,548.8125115394978L525.3901114093496,549.5025941995154L527.3358572550769,551.4040621288068L528.1313406479185,552.5374964487964L528.5574163805577,553.3966465593294L528.5574163805577,554.9868375907372L528.4295936607668,555.7178942714427L528.1405722887903,556.1682046141977L527.4606974447397,556.7657919337635L527.1642907600653,557.3437988989344L526.952815171433,557.9970636900252L526.786361585213,558.904270410253L526.8228620729769,559.469575107828L526.9268245517414,559.709100448199L526.3375618134996,561.164062219289L526.0624589154577,562.5958450177577L526.216414280183,563.6844638588818L526.4849840169936,564.2475507253093L527.178777334977,565.0231933617752L527.7833787995914,565.5597421162247L529.5910761079449,567.6697445504451L529.7109454140609,568.3283308860027L529.3736354590528,569.3512917000598L529.1621598704187,569.7372316483716L528.7838046198358,570.0488597231788L528.2770585484795,570.2633620961924L527.7752833606719,570.3027936352428L527.1580416493216,570.259893575444L526.1436973551481,569.9241728813349L525.5189283058517,569.6705966698419L524.4217832943013,568.9383195663659L523.9951394606851,568.5194917589752L522.6088310519153,566.7640651627926L521.4587106242743,566.0234060569856L520.6836788666005,565.8685488958581L519.9261162139646,565.9439689474793L519.5954814454344,566.0727116039234L519.0043723790186,566.4746361133639L518.073965004176,567.6728485845742L517.1623049615682,569.2045073573672L516.9373369747336,572.0438685008694L517.0449921098461,572.6104249123719L516.5704857689307,574.1947895929125L515.5311450317749,575.7775007712835L515.1121705613459,576.2417114575555L512.8488562695566,577.8867519545911L510.8071013587414,579.1446583792831L510.2952423785955,579.2194539018428L509.4851303856012,579.0893823865672L508.0501073180676,578.3819018410068L507.81335123596364,578.2297465195106L507.0199982217873,577.3218858072096L505.4479207935856,575.9840619819734L505.30120871631334,575.6391832086365L505.2512158303507,575.2963025686204L505.4899602658734,574.2123094187273L506.56551744030367,572.8792750051543L506.7559732927948,572.5162439269652L507.5827022393605,571.6109034068531L508.09328299230947,571.2752177278217L509.1486725820614,570.0092448537534L509.2845907407718,569.8144547699494L509.4952141779413,569.0480451005324L509.19341053398784,567.5749798563302L508.34054894248584,566.1888528167838L507.51069544054553,564.5304547313144L506.6910677561864,562.292622792711L505.50558304273545,560.2990337269275L504.56466579982043,558.4443711493514L504.0474098603954,557.9409664422583L503.3371416140835,557.4145175473759L501.9711428152368,556.9143621093253L500.8614995821954,557.061468657962L500.6382358982937,557.2354359819155L499.65300677918094,557.4766473069958L498.78636873899086,557.5756888360575L498.2773502637301,557.5270818335475L498.00522989581805,557.4331565066032L497.7514307844067,557.2215479201623L497.62730072096383,556.9755805657805L497.52376431793164,555.8277319659255L497.38173907371856,555.1880650651719L496.9130557678145,554.0000282777637L496.30234721769557,552.8301622933313L495.7910563385267,552.0806612510869L494.7542720557667,551.0934472095532L494.0724088582956,550.7826419953071L492.5811437940538,550.6912272743284L491.20349892518243,551.0020346872243L489.96773727527943,551.5322183159878L489.570066591481,552.0440991128098L489.1723959076844,552.9215618862154L488.59009240640626,555.4987643695595L488.0930040516614,556.6866634560374L487.7521434655482,557.2166139998963L486.72941968196756,558.0023627660003L485.29496471540733,558.9525068107387L483.8036996511655,559.6467987078768L482.42591275704945,560.5785529545192L482.07084964651585,560.9804654419795Z" class="state" fill="coral" stroke="#111" stroke-width="0.5"/></g></svg>