<?xml version="1.0" encoding="UTF-8" standalone="no"?>
<!-- Generator: Adobe Illustrator 14.0.0, SVG Export Plug-In . SVG Version: 6.00 Build 43363)  -->

<svg
   xmlns:dc="http://purl.org/dc/elements/1.1/"
   xmlns:cc="http://creativecommons.org/ns#"
   xmlns:rdf="http://www.w3.org/1999/02/22-rdf-syntax-ns#"
   xmlns:svg="http://www.w3.org/2000/svg"
   xmlns="http://www.w3.org/2000/svg"
   xmlns:sodipodi="http://sodipodi.sourceforge.net/DTD/sodipodi-0.dtd"
   xmlns:inkscape="http://www.inkscape.org/namespaces/inkscape"
   version="1.1"
   id="Layer_1"
   x="0px"
   y="0px"
   width="241"
   height="227"
   viewBox="0 0 241 227"
   enable-background="new 0 0 250 250"
   xml:space="preserve"
   inkscape:version="0.48.1 "
   sodipodi:docname="Ohio_State_Buckeyes_logo.svg"><metadata
   id="metadata31"><rdf:RDF><cc:Work
       rdf:about=""><dc:format>image/svg+xml</dc:format><dc:type
         rdf:resource="http://purl.org/dc/dcmitype/StillImage" /></cc:Work></rdf:RDF></metadata><defs
   id="defs29">
	

		
	
			
			
			
			
			
			
			
			
			
		</defs><sodipodi:namedview
   pagecolor="#ffffff"
   bordercolor="#666666"
   borderopacity="1"
   objecttolerance="10"
   gridtolerance="10"
   guidetolerance="10"
   inkscape:pageopacity="0"
   inkscape:pageshadow="2"
   inkscape:window-width="1680"
   inkscape:window-height="994"
   id="namedview27"
   showgrid="false"
   fit-margin-top="0"
   fit-margin-left="0"
   fit-margin-right="0"
   fit-margin-bottom="0"
   inkscape:zoom="2.9755053"
   inkscape:cx="68.076047"
   inkscape:cy="113.54481"
   inkscape:window-x="-4"
   inkscape:window-y="-4"
   inkscape:window-maximized="1"
   inkscape:current-layer="Layer_1" />
<g
   id="g3806"
   transform="translate(-4.3278453,-11.514154)"><path
     d="m 244.881,100.151 0.119,125.19 -37.381,-30.79 -43.08,43.291 -68.984,-0.086 -44.58,-44.611 -4.204,2.941 -3.409,8.639 -18.484,14.69 L 5,205.721 l 0.005,-98.397 2.442,-1.33 c 7.137,-3.89 14.243,-8.058 21.71,-12.058 6.747,-3.613 13.786,-7.089 21.392,-10.118 l 0.072,-28.537 43.152,-43.122 69.159,0.018 44.479,44.334 -0.016,26.208 c 12.159,4.281 26.582,11.086 37.486,17.432 z"
     id="path9"
     inkscape:connector-curvature="0"
     style="fill:#ffffff" /><path
     clip-rule="evenodd"
     d="m 191.357,63.483 0.014,25.884 c -9.718,-2.598 -19.773,-5.29 -30.057,-6.533 l 0.005,-8.733 -17.37,-16.503 -31.577,-0.011 -16.467,16.39 v 9.31 c -9.944,1.582 -19.754,4.133 -29.263,6.779 0,0 0.092,-22.729 -0.118,-22.729 h 0.064 c -0.081,-1.613 0.065,-5.628 0.065,-5.628 l 33.681,-33.438 55.878,0.012 35.145,35.2 z"
     id="path11"
     inkscape:connector-curvature="0"
     style="fill:#990000;fill-opacity:1;fill-rule:evenodd" /><path
     clip-rule="evenodd"
     d="m 191.863,168.822 0.129,18.617 -34.106,34.029 -55.975,-0.059 -34.483,-34.423 -0.021,-17.176 c 9.169,-4.745 18.676,-8.358 28.782,-10.974 l 0.093,15.688 17.495,17.499 31.695,-0.124 16.154,-16.213 -0.053,-16.85 c 0,0.002 20.458,4.856 30.29,9.986 z"
     id="path13"
     inkscape:connector-curvature="0"
     style="fill:#990000;fill-opacity:1;fill-rule:evenodd" /><path
     clip-rule="evenodd"
     d="m 157.516,157.929 -0.007,15.316 -14.012,14.071 -27.126,0.059 -14.976,-15.174 0.005,-14.804 6.651,-1.281 -0.005,13.373 10.848,10.912 21.16,-0.064 10.934,-10.872 v -13.149 c 2.158,0.462 6.528,1.613 6.528,1.613 z"
     id="path15"
     inkscape:connector-curvature="0"
     style="fill:#999999;fill-opacity:1;fill-rule:evenodd" /><path
     clip-rule="evenodd"
     d="m 162.595,233.156 -65.102,-0.08 -41.833,-41.709 0.005,-7.221 c 0,0 -6.563,3.614 -9.944,6.511 l 0.006,-7.608 c 5.247,-3.776 11.178,-7.665 16.963,-10.759 l 0.015,16.178 38.034,37.974 59.074,-0.054 36.883,-37 v -18.134 c 4.908,2.55 9.375,5.493 13.89,8.501 l -0.006,7.62 c 0,0 -5.132,-2.955 -7.568,-4.456 l -0.062,9.687 -40.355,40.55 z"
     id="path17"
     inkscape:connector-curvature="0"
     style="fill:#999999;fill-opacity:1;fill-rule:evenodd" /><path
     clip-rule="evenodd"
     d="m 202.729,58.453 -0.017,27.609 c 12.995,4.326 25.475,10.041 37.066,16.788 v 6.91 C 226.12,102.156 211.413,95.704 196.19,90.813 L 196.2,61.933 157.806,23.5 98.553,23.557 61.934,60.019 62.058,91.422 C 48.563,95.07 24.616,108.255 9.699,117.639 L 9.688,110.105 C 23.943,102.336 38.069,93.457 55.224,87.032 l 0.075,-29.806 40.413,-40.384 65.285,0.017 41.732,41.594 z"
     id="path19"
     inkscape:connector-curvature="0"
     style="fill:#999999;fill-opacity:1;fill-rule:evenodd" /><polygon
     clip-rule="evenodd"
     points="139.299,69.085 117.021,69.145 107.4,78.896 107.4,81.801 100.738,82.576 100.749,75.655 114.181,62.3 142.142,62.311 156.735,75.563 156.735,82.367 150.354,81.536 150.353,78.793 "
     id="polygon21"
     style="fill:#999999;fill-opacity:1;fill-rule:evenodd" /><path
     clip-rule="evenodd"
     d="m 207.545,208.823 c 2.477,0 4.458,-1.993 4.458,-4.458 0,-2.487 -1.981,-4.48 -4.458,-4.48 -2.487,0 -4.457,1.993 -4.457,4.48 0,2.465 1.97,4.458 4.457,4.458 z m 0,-1.058 c -1.947,0 -3.399,-1.419 -3.399,-3.399 0,-2.004 1.452,-3.422 3.399,-3.422 1.914,0 3.4,1.418 3.4,3.422 0,1.98 -1.486,3.399 -3.4,3.399 z m 1.014,-3.096 c 0.821,-0.057 1.261,-0.404 1.261,-1.261 0,-1.228 -0.731,-1.418 -1.802,-1.418 h -2.251 v 4.638 h 1.035 v -1.959 h 0.721 l 1.036,1.959 h 1.126 l -1.126,-1.959 z m -1.757,-0.697 v -1.171 h 1.002 c 0.451,0 1.048,0 1.048,0.473 0,0.585 -0.293,0.698 -0.812,0.698 h -1.238 z"
     id="path23"
     inkscape:connector-curvature="0"
     style="fill:#231f20;fill-rule:evenodd" /><path
     clip-rule="evenodd"
     d="m 64.786,100.134 -0.011,61.585 -1.883,1.1 0.066,-27.927 c -3.632,1.42 -7.756,2.823 -11.163,4.485 l 0.005,29.53 -2.083,1.12 0.017,-64.163 2.012,-0.996 -0.021,32.442 c 3.649,-1.872 7.577,-2.863 11.241,-4.557 l 0.006,-31.969 1.814,-0.65 z m 4.139,-5.827 -0.011,70.404 c -3.455,1.63 -6.667,3.422 -9.88,5.23 l 0.081,-28.735 c -0.904,0.21 -2.212,0.824 -3.116,1.228 v 29.058 l -10.138,6.586 0.017,-75.29 c 3.277,-1.453 6.398,-2.922 9.869,-4.068 l -0.085,32.544 2.922,-1.033 V 97.664 c 3.356,-1.113 6.902,-2.437 10.341,-3.357 z m 29.193,3.337 -0.016,45.883 -2.658,0.586 -0.054,-45.839 2.728,-0.63 z m 4.385,-1.562 -0.016,49.257 -1.416,2.26 c -2.801,0.681 -5.259,1.265 -7.813,1.809 l -2.077,-1.743 0.016,-50.388 2.555,-3.116 5.57,-0.995 3.181,2.916 z m 1.674,-0.571 -0.016,49.828 -2.185,3.552 -9.363,2.26 -3.344,-2.906 0.021,-51.398 3.451,-4.068 c 2.276,-0.549 4.741,-0.903 7.082,-1.291 l 4.354,4.023 z m 4.127,-2.023 0.054,53.014 -4.058,6.327 c -4.472,1.033 -9.008,1.873 -13.367,3.164 l -5.683,-5.617 0.016,-55.661 5.86,-6.193 10.009,-1.884 7.169,6.85 z m -30.21,2.668 0.01,59.471 -1.851,0.754 0.054,-59.664 1.787,-0.561 z m 4.531,-5.638 -0.021,68.252 c -3.503,1.275 -7.645,2.934 -11.035,4.499 L 71.561,93.403 c 3.508,-0.874 7.464,-2.159 11.064,-2.885 z m -54.253,38.614 -0.011,62.44 -3.164,2.391 -0.054,-62.764 3.229,-2.067 z m 6.328,-6.512 -0.022,68.823 -2.056,4.907 c -3.019,2.179 -5.607,4.24 -8.512,6.517 l -5.506,-3.687 0.017,-68.822 2.572,-4.972 10.332,-5.812 3.175,3.046 z m 2.056,-1.107 c 0.064,4.213 -0.022,69.995 -0.022,69.995 l -2.69,6.521 c -3.487,2.356 -6.506,5.037 -9.75,7.555 l -7.889,-5.295 0.016,-70.125 3.224,-6.069 12.398,-7.36 4.713,4.778 z m 6.199,-2.907 -0.022,74.451 -3.465,8.781 c -5.263,3.664 -10.089,7.685 -14.787,11.752 L 9.683,203.26 9.635,130.23 l 6.135,-11.3 17.564,-10.267 9.621,9.943 z m 190.882,0.086 v 2.771 c -3.967,-2.146 -7.344,-3.947 -11.677,-6.005 l -0.017,33.765 c 3.972,2.228 7.997,4.519 11.951,6.75 v 2.742 c -3.971,-2.099 -7.782,-4.344 -11.951,-6.587 v 37.479 c 4.214,3.26 8.045,6.215 11.951,9.363 v 2.633 c -4.649,-3.729 -9.787,-7.587 -14.675,-11.387 l 0.017,-78.713 c 4.957,2.213 9.752,4.671 14.401,7.189 z m -52.941,-16.357 -0.011,25.376 -2.691,-0.71 0.055,-25.313 2.647,0.647 z m 29.7,2.97 -0.006,1.829 c -2.92,-1.181 -5.122,-2.007 -7.808,-2.976 l -0.081,61.197 -1.948,-1.075 -0.042,-60.789 -5.684,-1.803 V 99.75 c 6.19,1.945 9.496,3.218 15.569,5.555 z m -27.902,-7.302 2.324,3.815 -0.016,31.317 c -3.795,-1.163 -7.168,-2.357 -11.027,-3.358 l 0.017,-30.865 2.05,-2.519 6.652,1.61 z m 4.003,2.976 0.049,56.458 -1.813,-0.774 v -21.548 c -3.869,-1.32 -7.082,-2.286 -10.957,-3.399 l 0.006,21.115 -1.813,-0.452 0.087,-53.918 3.271,-4.133 8.201,2.002 2.969,4.649 z m -23.106,-8.976 v 1.614 l -5.807,-0.78 -0.017,55.795 -1.872,-0.387 0.021,-55.597 c -1.974,-0.306 -4.485,-0.519 -6.452,-0.774 l 0.104,-1.679 c 4.616,0.5 9.431,1.14 14.023,1.808 z m -18.092,-10.708 -0.006,3.928 22.623,2.965 -0.017,7.432 6.199,-6.135 c 3.939,0.791 7.83,1.647 11.624,2.777 1.534,2.372 2.921,4.843 4.649,7.038 0,0 0.049,-3.696 0.064,-5.554 17.322,4.666 34.289,12.479 49.142,21.374 l 0.032,16.912 c -3.771,-2.313 -7.284,-4.34 -11.457,-6.388 l -0.069,19.823 c 1.84,1.308 10.024,5.989 11.881,7.297 v 16.725 c -3.938,-2.422 -7.421,-4.94 -11.554,-7.168 0,0 -0.112,24.279 -0.064,24.473 4.197,3.331 7.728,6.231 11.618,9.362 v 18.726 c 0,0 -17.306,-14.964 -26.798,-22.019 l -0.07,-79.358 c -2.019,-0.887 -4.246,-1.953 -6.376,-2.518 l 0.053,61.622 c -2.498,-1.626 -10.363,-6.069 -10.363,-6.069 l -0.017,-59.686 c -1.599,-0.759 -3.762,-1.113 -5.44,-1.679 l 0.06,58.76 c -3.392,-1.533 -6.775,-2.674 -10.133,-4.11 v -20.964 l -2.906,-0.819 v 20.621 c -3.374,-0.952 -7.254,-2.202 -10.677,-3.058 l -0.043,-56.183 -5.666,-0.963 0.113,55.748 c -3.391,-0.582 -7.228,-1.786 -10.666,-2.448 0,0 -0.006,-18.432 0.14,-28.052 l -0.129,-0.193 c 0.146,-8.992 0.059,-26.41 0.011,-26.733 -1.646,-0.214 -3.707,-0.339 -5.436,-0.517 l 0.005,11.989 -14.748,-0.043 0.031,-19.308 -4.03,0.064 0.054,27.616 10.746,-0.044 8.276,7.942 -0.011,44.167 -7.104,7.366 -18.532,0.06 -8.142,-8.136 -0.006,-28.089 h 14.771 l 0.021,20.728 h 4.031 l -0.086,-28.734 h -10.719 l -8.142,-8.007 0.021,-42.746 c 0,0 4.472,-5.053 7.022,-7.491 6.151,-0.048 12.269,-0.177 18.468,-0.129 l 7.752,7.826 z m -23.274,-1.12 h 12.399 l 4.649,4.778 v 17.564 H 136.69 V 85.986 l -3.229,-3.229 h -10.075 l -2.712,3.1 v 33.838 l 3.481,3.486 h 10.849 l 4.784,4.779 v 37.065 l -4.778,4.65 H 123 l -4.52,-4.37 v -19.784 h 2.712 v 18.6 l 2.971,2.972 h 9.816 l 3.229,-3.095 v -35.005 l -3.229,-3.229 h -10.855 l -5.032,-4.908 V 84.953 l 4.133,-4.778 z"
     id="path25"
     inkscape:connector-curvature="0"
     style="fill:#000000;fill-opacity:1;fill-rule:evenodd" /></g>
</svg>